<svg width="65" height="65" viewBox="0 0 65 65" fill="none" xmlns="http://www.w3.org/2000/svg">
<rect width="65" height="65" rx="32.5" fill="white"/>
<path d="M24.9393 38.9393C24.3536 39.5251 24.3536 40.4749 24.9393 41.0607C25.5251 41.6464 26.4749 41.6464 27.0607 41.0607L26 40L24.9393 38.9393ZM41.5 26C41.5 25.1716 40.8284 24.5 40 24.5L26.5 24.5C25.6716 24.5 25 25.1716 25 26C25 26.8284 25.6716 27.5 26.5 27.5L38.5 27.5L38.5 39.5C38.5 40.3284 39.1716 41 40 41C40.8284 41 41.5 40.3284 41.5 39.5L41.5 26ZM26 40L27.0607 41.0607L41.0607 27.0607L40 26L38.9393 24.9393L24.9393 38.9393L26 40Z" fill="#54BBAF"/>
</svg>
