<svg width="183" height="56" viewBox="0 0 183 56" fill="none" xmlns="http://www.w3.org/2000/svg">
<path d="M182.706 42.4638L165.653 39.4319L171.554 55.7163L182.706 42.4638ZM106.856 23.1401L108.309 22.7692L106.856 23.1401ZM116.399 23.6718L116.801 25.1171L116.399 23.6718ZM173.67 45.4267L173.266 43.9822C171.325 44.5254 169.294 45.0371 167.2 45.5L167.524 46.9646L167.848 48.4293C169.998 47.9541 172.081 47.4289 174.074 46.8712L173.67 45.4267ZM161.293 48.1576L161.054 46.6768C159.015 47.0062 156.943 47.2791 154.857 47.4824L155.002 48.9753L155.147 50.4682C157.301 50.2585 159.436 49.9771 161.533 49.6384L161.293 48.1576ZM148.672 49.3674L148.635 47.8678C146.551 47.9194 144.473 47.8889 142.422 47.7633L142.331 49.2605L142.239 50.7577C144.383 50.8889 146.547 50.9205 148.709 50.8669L148.672 49.3674ZM136.028 48.5539L136.276 47.0745C134.223 46.7309 132.222 46.2717 130.292 45.6839L129.855 47.1188L129.418 48.5537C131.484 49.183 133.612 49.6704 135.781 50.0334L136.028 48.5539ZM123.957 44.8089L124.618 43.4624C122.794 42.5668 121.068 41.5192 119.463 40.3047L118.558 41.501L117.653 42.6973C119.422 44.0353 121.312 45.1816 123.297 46.1555L123.957 44.8089ZM113.935 37.1777L115.07 36.1964C113.794 34.7214 112.638 33.078 111.621 31.2504L110.31 31.9795L108.999 32.7085C110.115 34.7145 111.389 36.5271 112.801 38.1591L113.935 37.1777ZM107.758 26.1841L109.178 25.7015C108.859 24.7622 108.569 23.7853 108.309 22.7692L106.856 23.1401L105.402 23.511C105.68 24.6001 105.992 25.6517 106.337 26.6667L107.758 26.1841ZM106.856 23.1401L108.309 22.7692C108.04 21.7143 107.81 20.7088 107.617 19.751L106.147 20.0473L104.676 20.3436C104.88 21.3547 105.122 22.41 105.402 23.511L106.856 23.1401ZM105.335 13.8404L106.833 13.7713C106.725 11.4173 106.927 9.53879 107.334 8.06255L105.888 7.66401L104.442 7.26546C103.932 9.11571 103.717 11.3216 103.836 13.9095L105.335 13.8404ZM109.324 2.61039L110.121 3.88087C111.454 3.04424 113.179 2.80908 115.111 3.15015L115.371 1.67299L115.632 0.195834C113.195 -0.234483 110.661 0.000554846 108.527 1.33991L109.324 2.61039ZM121.125 4.03353L120.306 5.2901C121.944 6.35825 123.383 7.71292 124.413 9.18472L125.642 8.32445L126.871 7.46417C125.596 5.6427 123.865 4.02946 121.944 2.77697L121.125 4.03353ZM127.564 14.1607L126.066 14.0869C125.995 15.5263 125.364 17.0246 123.783 18.4499L124.788 19.5639L125.792 20.6778C127.904 18.7731 128.948 16.5495 129.062 14.2344L127.564 14.1607ZM119.377 22.6952L118.836 21.296C117.981 21.6264 117.037 21.938 115.998 22.2264L116.399 23.6718L116.801 25.1171C117.925 24.8052 118.962 24.4635 119.918 24.0944L119.377 22.6952ZM116.399 23.6718L115.998 22.2264C115.032 22.4945 114.067 22.8082 113.102 23.1596L113.615 24.5691L114.129 25.9785C115.029 25.6506 115.919 25.3617 116.801 25.1171L116.399 23.6718ZM108.232 26.8741L107.581 25.5226C105.844 26.359 104.087 27.2758 102.308 28.231L103.017 29.5526L103.727 30.8742C105.488 29.9284 107.202 29.0348 108.883 28.2256L108.232 26.8741ZM97.8659 32.3539L97.1494 31.0361C95.4653 31.9517 93.7535 32.8712 92.0026 33.7692L92.6871 35.1039L93.3716 36.4386C95.1544 35.5243 96.8908 34.5915 98.5824 33.6717L97.8659 32.3539ZM87.4111 37.6621L86.7923 36.2957C85.0587 37.0808 83.2868 37.8214 81.4702 38.495L81.9917 39.9014L82.5131 41.3079C84.4054 40.6063 86.2428 39.8379 88.03 39.0285L87.4111 37.6621ZM76.4168 41.7001L76.022 40.253C74.2129 40.7465 72.3586 41.1598 70.4539 41.4736L70.6977 42.9536L70.9415 44.4337C72.9553 44.102 74.9105 43.6659 76.8116 43.1472L76.4168 41.7001ZM64.871 43.5844L64.7937 42.0864C62.9482 42.1816 61.054 42.177 59.1072 42.0569L59.0148 43.554L58.9224 45.0512C60.9844 45.1784 62.9919 45.1834 64.9483 45.0824L64.871 43.5844ZM53.2001 42.8738L53.454 41.3954C51.6452 41.0848 49.7907 40.6726 47.8879 40.1473L47.4888 41.5932L47.0896 43.0391C49.0865 43.5903 51.0379 44.0245 52.9463 44.3522L53.2001 42.8738ZM41.8962 39.7735L42.4217 38.3685C40.6987 37.7241 38.9373 36.9875 37.1358 36.1512L36.5042 37.5117L35.8726 38.8723C37.7413 39.7398 39.5735 40.5062 41.3708 41.1784L41.8962 39.7735ZM31.2872 34.8711L32.0075 33.5553C30.3801 32.6644 28.7215 31.6934 27.0304 30.6376L26.236 31.91L25.4416 33.1824C27.1793 34.2673 28.8874 35.2673 30.5669 36.1868L31.2872 34.8711ZM21.3447 28.6811L22.2011 27.4495C20.6629 26.3799 19.0991 25.2416 17.5091 24.0313L16.6006 25.2249L15.692 26.4184C17.315 27.6538 18.9135 28.8175 20.4883 29.9126L21.3447 28.6811ZM11.9866 21.5706L12.9393 20.4121C11.4893 19.2196 10.0183 17.9686 8.52576 16.6568L7.53552 17.7835L6.54528 18.9102C8.06152 20.2428 9.55754 21.5151 11.0338 22.7292L11.9866 21.5706ZM3.21386 13.8706L4.2363 12.773C3.52053 12.1062 2.79998 11.4258 2.07462 10.7314L1.03736 11.8149L9.21172e-05 12.8985C0.735102 13.6021 1.46552 14.2919 2.19142 14.9681L3.21386 13.8706Z" fill="#3B5367"/>
</svg>
