<svg width="227" height="82" viewBox="0 0 227 82" fill="none" xmlns="http://www.w3.org/2000/svg">
<path d="M226.428 40.5291L209.126 41.3374L217.077 25.9496L226.428 40.5291ZM126.921 49.5613L125.549 48.9557L126.921 49.5613ZM139.097 50.6838L140.356 49.8678L139.097 50.6838ZM218.036 36.438L217.424 37.8075C215.606 36.9949 213.705 36.1901 211.737 35.4058L212.292 34.0124L212.848 32.6189C214.854 33.4185 216.793 34.2393 218.648 35.0685L218.036 36.438ZM206.463 31.8254L205.965 33.2402C204.054 32.5672 202.098 31.9218 200.108 31.3137L200.546 29.8791L200.985 28.4446C203.017 29.0655 205.013 29.7241 206.962 30.4105L206.463 31.8254ZM194.547 28.1906L194.173 29.6434C192.192 29.1342 190.189 28.6691 188.174 28.2566L188.475 26.7871L188.776 25.3176C190.842 25.7405 192.893 26.217 194.92 26.7378L194.547 28.1906ZM182.339 25.7041L182.121 27.1881C180.087 26.8885 178.052 26.6508 176.027 26.4836L176.15 24.9887L176.273 23.4938C178.367 23.6666 180.465 23.9118 182.558 24.2201L182.339 25.7041ZM169.93 24.7017L169.918 26.2016C167.861 26.1854 165.826 26.2533 163.823 26.4144L163.702 24.9192L163.582 23.424C165.68 23.2554 167.803 23.1849 169.942 23.2017L169.93 24.7017ZM157.527 25.7336L157.803 27.208C155.798 27.5833 153.842 28.0692 151.945 28.6754L151.488 27.2466L151.032 25.8178C153.055 25.171 155.133 24.6557 157.251 24.2592L157.527 25.7336ZM145.709 29.5544L146.367 30.9026C144.573 31.7774 142.852 32.7871 141.214 33.9428L140.349 32.7171L139.484 31.4915C141.259 30.2392 143.12 29.1483 145.052 28.2062L145.709 29.5544ZM135.583 36.7158L136.64 37.7802C135.263 39.1481 133.966 40.6578 132.761 42.3199L131.547 41.4395L130.332 40.559C131.631 38.7673 133.033 37.1344 134.526 35.6515L135.583 36.7158ZM128.278 46.738L129.608 47.4324C129.149 48.3105 128.711 49.2216 128.294 50.1669L126.921 49.5613L125.549 48.9557C125.992 47.9516 126.459 46.9811 126.949 46.0436L128.278 46.738ZM126.921 49.5613L128.294 50.1669C127.868 51.1326 127.47 52.0708 127.1 52.9819L125.71 52.4171L124.32 51.8522C124.702 50.9127 125.112 49.9473 125.549 48.9557L126.921 49.5613ZM123.638 58.0683L125.066 58.5294C124.388 60.6286 123.884 62.5422 123.532 64.2797L122.062 63.9821L120.592 63.6845C120.969 61.8225 121.503 59.7992 122.211 57.6073L123.638 58.0683ZM121.381 69.9997L122.881 70.007C122.869 72.3035 123.238 74.0385 123.813 75.3091L122.447 75.928L121.081 76.5469C120.284 74.7871 119.868 72.6015 119.881 69.9925L121.381 69.9997ZM126.822 79.8212L127.211 78.3726C128.622 78.7518 130.355 78.5848 132.189 77.826L132.762 79.2119L133.336 80.5978C131.063 81.5388 128.64 81.8631 126.432 81.2698L126.822 79.8212ZM137.761 75.8131L136.704 74.749C137.966 73.4951 139.081 71.9715 139.925 70.2325L141.275 70.8875L142.624 71.5425C141.629 73.594 140.313 75.3924 138.818 76.8771L137.761 75.8131ZM142.963 65.0769L141.472 64.9073C141.67 63.1678 141.603 61.3042 141.193 59.3438L142.662 59.0369L144.13 58.7301C144.605 61.0031 144.687 63.1884 144.453 65.2466L142.963 65.0769ZM140.617 53.3156L139.279 53.9939C138.863 53.1744 138.385 52.3424 137.839 51.4998L139.097 50.6838L140.356 49.8678C140.958 50.7961 141.489 51.7199 141.955 52.6374L140.617 53.3156ZM139.097 50.6838L137.839 51.4998C137.317 50.6956 136.786 49.8718 136.246 49.0335L137.507 48.2208L138.767 47.4081C139.308 48.2471 139.837 49.0674 140.356 49.8678L139.097 50.6838ZM134.312 43.297L133.058 44.1206C132.012 42.5281 130.927 40.9041 129.796 39.2652L131.031 38.4135L132.266 37.5618C133.413 39.2243 134.511 40.8679 135.565 42.4733L134.312 43.297ZM127.616 33.6279L126.411 34.5207C125.271 32.9815 124.087 31.4447 122.854 29.9241L124.02 28.9795L125.185 28.0349C126.449 29.5936 127.659 31.1654 128.822 32.7352L127.616 33.6279ZM120.201 24.5103L119.088 25.5158C117.803 24.0936 116.469 22.6997 115.081 21.3464L116.129 20.2726L117.176 19.1987C118.612 20.5998 119.99 22.0397 121.314 23.5048L120.201 24.5103ZM111.778 16.3227L110.812 17.4701C109.352 16.2405 107.837 15.0615 106.264 13.9444L107.133 12.7214L108.001 11.4984C109.646 12.6661 111.225 13.896 112.744 15.1753L111.778 16.3227ZM102.199 9.53945L101.445 10.836C99.8081 9.88415 98.113 9.00036 96.3555 8.19498L96.9804 6.83135L97.6052 5.46771C99.4543 6.31506 101.236 7.24394 102.953 8.24285L102.199 9.53945ZM91.5282 4.65626L91.0433 6.07572C89.2718 5.47057 87.4409 4.94337 85.5473 4.50295L85.8871 3.04194L86.227 1.58094C88.2197 2.04442 90.1474 2.59946 92.0131 3.23679L91.5282 4.65626ZM80.1034 1.99379L79.9078 3.48098C78.0554 3.23731 76.1465 3.07387 74.1786 2.99779L74.2366 1.49891L74.2945 2.6023e-05C76.3534 0.0796255 78.3542 0.250776 80.299 0.506604L80.1034 1.99379ZM68.3628 1.52411L68.4317 3.02253C66.571 3.10801 64.6608 3.2687 62.6992 3.50981L62.5162 2.02101L62.3332 0.532218C64.3687 0.282022 66.3551 0.11477 68.294 0.0256953L68.3628 1.52411ZM56.714 2.94054L56.9984 4.41334C55.1578 4.7687 53.2748 5.19221 51.3481 5.68762L50.9746 4.23487L50.6011 2.78212C52.585 2.27202 54.5274 1.83501 56.4297 1.46774L56.714 2.94054ZM45.3163 5.85738L45.7679 7.28781C43.9819 7.85158 42.1605 8.47487 40.3028 9.1603L39.7836 7.75304L39.2643 6.34577C41.1653 5.64436 43.0319 5.00555 44.8648 4.42695L45.3163 5.85738ZM34.3371 9.89779L34.9156 11.2817C33.172 12.0107 31.3981 12.7925 29.5933 13.6291L28.9625 12.2682L28.3316 10.9073C30.1699 10.0552 31.9786 9.25795 33.7585 8.51386L34.3371 9.89779ZM23.6422 14.8482L24.3194 16.1866C22.6306 17.041 20.9161 17.9418 19.1753 18.8905L18.4575 17.5734L17.7398 16.2562C19.5066 15.2934 21.2482 14.3783 22.9651 13.5097L23.6422 14.8482ZM13.3609 20.4442L14.1148 21.741C12.4541 22.7064 10.7706 23.714 9.06378 24.765L8.27728 23.4877L7.49079 22.2104C9.21859 21.1465 10.9239 20.1259 12.6071 19.1474L13.3609 20.4442ZM3.34285 26.6053L4.15821 27.8644C3.33013 28.4006 2.49677 28.9468 1.65811 29.5031L0.829011 28.2531L-8.88941e-05 27.003C0.847583 26.4408 1.6901 25.8886 2.52749 25.3463L3.34285 26.6053Z" fill="#3B5367"/>
</svg>
