<svg width="112" height="35" viewBox="0 0 112 35" fill="none" xmlns="http://www.w3.org/2000/svg">
<path d="M4.175e-05 29.5146L11.542 29.8562L6.06691 19.6898L4.175e-05 29.5146ZM49.7095 23.0396L48.9626 23.7044L49.7095 23.0396ZM8.91578 25.0782L9.31977 25.9929C11.2593 25.1363 13.3098 24.2964 15.4227 23.5133L15.0751 22.5756L14.7276 21.638C12.5736 22.4363 10.4854 23.2918 8.51178 24.1634L8.91578 25.0782ZM21.3818 20.4835L21.661 21.4437C23.7862 20.8257 25.9223 20.299 28.0254 19.8993L27.8387 18.9169L27.6519 17.9345C25.4775 18.3478 23.2792 18.8903 21.1025 19.5233L21.3818 20.4835ZM34.4266 18.1034L34.4741 19.1023C36.7438 18.9943 38.8935 19.1023 40.8638 19.4709L41.0477 18.488L41.2316 17.505C39.0765 17.1018 36.7671 16.991 34.3791 17.1045L34.4266 18.1034ZM47.2043 20.8699L46.6511 21.703C47.5001 22.2667 48.2736 22.9304 48.9626 23.7044L49.7095 23.0396L50.4565 22.3747C49.6493 21.4678 48.7443 20.6921 47.7574 20.0368L47.2043 20.8699ZM49.7095 23.0396L48.9626 23.7044C49.8123 24.6591 50.4678 25.5263 50.9597 26.3078L51.806 25.7751L52.6523 25.2423C52.0906 24.3501 51.3647 23.395 50.4565 22.3747L49.7095 23.0396ZM52.2229 32.0735L51.5332 31.3494C51.0176 31.8405 50.1928 32.1788 49.1694 32.2838C48.1563 32.3877 47.0379 32.2518 46.0355 31.8918L45.6975 32.8329L45.3595 33.7741C46.6377 34.2331 48.0566 34.4084 49.3735 34.2733C50.68 34.1393 51.9776 33.6883 52.9127 32.7975L52.2229 32.0735ZM42.2245 27.6414L43.2058 27.834C43.3522 27.0881 43.7419 26.1933 44.509 25.1546L43.7046 24.5605L42.9002 23.9665C42.0045 25.1793 41.4602 26.3432 41.2432 27.4488L42.2245 27.6414ZM43.7046 24.5605L44.509 25.1546C45.113 24.3368 45.7299 23.4896 46.3938 22.5974L45.5916 22.0004L44.7894 21.4034C44.125 22.2961 43.4912 23.1662 42.9002 23.9665L43.7046 24.5605ZM49.5591 17.0142L50.3138 17.6702C51.6172 16.1708 53.0596 14.6632 54.6843 13.2069L54.0168 12.4623L53.3493 11.7176C51.6519 13.2392 50.1516 14.8083 48.8044 16.3581L49.5591 17.0142ZM59.0528 8.56952L59.6033 9.40432C61.2528 8.31647 63.0559 7.29995 65.0372 6.38962L64.6197 5.48094L64.2022 4.57226C62.1252 5.52653 60.2335 6.59297 58.5022 7.73472L59.0528 8.56952ZM70.5799 3.24874L70.8645 4.20739C72.7574 3.64547 74.7854 3.17429 76.9623 2.81348L76.7988 1.82694L76.6353 0.8404C74.3787 1.21441 72.2697 1.70397 70.2954 2.29009L70.5799 3.24874ZM83.1221 1.1254L83.1819 2.1236C85.1676 2.00448 87.259 1.96907 89.4636 2.02792L89.4902 1.02828L89.5169 0.0286363C87.2573 -0.0316837 85.108 0.00445785 83.0622 0.127192L83.1221 1.1254ZM95.8591 1.43479L95.7607 2.42994C97.7592 2.62756 99.8394 2.89622 102.005 3.24188L102.163 2.25437L102.321 1.26687C100.117 0.915229 97.9974 0.641357 95.9575 0.439644L95.8591 1.43479ZM108.427 3.42082L108.219 4.39915C109.239 4.61489 110.275 4.84645 111.329 5.0943L111.558 4.12086L111.787 3.14742C110.719 2.89622 109.668 2.6614 108.634 2.4425L108.427 3.42082Z" fill="#3B5367"/>
</svg>
