<svg width="198" height="73" viewBox="0 0 198 73" fill="none" xmlns="http://www.w3.org/2000/svg">
<path d="M-9.47887e-05 11.9258L16.6084 16.8409L12.5607 -4.82414e-05L-9.47887e-05 11.9258ZM83.0276 43.5896L81.5412 43.7912L83.0276 43.5896ZM72.3339 41.7521L71.296 40.6692L72.3339 41.7521ZM9.23374 9.97131L9.48681 11.4498C11.4686 11.1106 13.5313 10.8063 15.6539 10.5485L15.473 9.05946L15.2921 7.5704C13.1203 7.83422 11.0094 8.14555 8.98066 8.49281L9.23374 9.97131ZM21.7484 8.45241L21.8558 9.94856C23.9014 9.80172 25.9798 9.70371 28.0747 9.66337L28.0458 8.16365L28.017 6.66393C25.867 6.70533 23.736 6.80587 21.641 6.95626L21.7484 8.45241ZM34.3496 8.22137L34.2915 9.72024C36.3607 9.80034 38.4288 9.94413 40.4805 10.1597L40.6372 8.66794L40.794 7.17615C38.6721 6.95318 36.538 6.80495 34.4076 6.72249L34.3496 8.22137ZM46.8761 9.56096L46.605 11.0362C48.6473 11.4117 50.6547 11.8698 52.6114 12.419L53.0167 10.9748L53.422 9.53057C51.3698 8.9546 49.2724 8.47629 47.1473 8.08568L46.8761 9.56096ZM58.9821 12.9999L58.4195 14.3904C60.3302 15.1634 62.1666 16.0432 63.9117 17.0383L64.6547 15.7353L65.3978 14.4323C63.5271 13.3655 61.5691 12.4284 59.5446 11.6094L58.9821 12.9999ZM69.8661 19.2657L68.927 20.4353C70.4931 21.6927 71.9486 23.0789 73.2764 24.6042L74.4077 23.6192L75.5391 22.6343C74.0889 20.9686 72.5036 19.4596 70.8053 18.096L69.8661 19.2657ZM78.0813 28.7241L76.7882 29.4843C77.7753 31.1634 78.6407 32.976 79.3683 34.9318L80.7742 34.4087L82.18 33.8856C81.3922 31.7682 80.4519 29.7967 79.3744 27.9639L78.0813 28.7241ZM82.4984 40.4692L81.029 40.7707C81.2294 41.7475 81.4006 42.754 81.5412 43.7912L83.0276 43.5896L84.514 43.3881C84.3646 42.2857 84.1821 41.2125 83.9678 40.1678L82.4984 40.4692ZM83.0276 43.5896L81.5412 43.7912C81.6731 44.7642 81.7876 45.7059 81.8855 46.6171L83.3769 46.4568L84.8684 46.2966C84.7674 45.3567 84.6495 44.3875 84.514 43.3881L83.0276 43.5896ZM83.7954 52.0505L82.2965 52.1081C82.3752 54.1535 82.3526 55.996 82.245 57.6491L83.7418 57.7465L85.2387 57.8439C85.3538 56.0751 85.3764 54.1282 85.2943 51.9929L83.7954 52.0505ZM82.9336 63.332L81.4768 62.9744C80.9664 65.0536 80.2732 66.5624 79.5129 67.6158L80.7292 68.4936L81.9455 69.3715C82.9876 67.9276 83.8139 66.0372 84.3903 63.6897L82.9336 63.332ZM76.0494 71.2766L75.9811 69.7782C74.7132 69.836 73.2561 69.3029 71.8297 68.1361L70.88 69.2971L69.9303 70.4582C71.7506 71.9472 73.9095 72.8758 76.1178 72.7751L76.0494 71.2766ZM67.3749 64.8986L68.7017 64.1988C67.9404 62.7553 67.3677 61.1002 67.0791 59.3113L65.5983 59.5503L64.1174 59.7892C64.4587 61.9043 65.1367 63.8703 66.0481 65.5983L67.3749 64.8986ZM65.5877 53.9127L67.0696 54.1445C67.3224 52.5283 67.8255 50.8639 68.6355 49.1931L67.2857 48.5388L65.936 47.8844C64.9962 49.8229 64.4042 51.7722 64.1057 53.6809L65.5877 53.9127ZM70.3937 43.8112L71.5386 44.7804C72.0914 44.1273 72.7012 43.4779 73.3719 42.835L72.3339 41.7521L71.296 40.6692C70.5524 41.382 69.8709 42.1072 69.2488 42.8421L70.3937 43.8112ZM72.3339 41.7521L73.3719 42.835C74.1 42.1371 74.845 41.4188 75.6046 40.687L74.564 39.6067L73.5233 38.5264C72.7621 39.2597 72.0206 39.9747 71.296 40.6692L72.3339 41.7521ZM79.0427 35.3303L80.0702 36.4231C81.5284 35.0522 83.0383 33.6613 84.6022 32.2744L83.607 31.1521L82.6117 30.0299C81.0204 31.4411 79.4883 32.8525 78.0153 34.2374L79.0427 35.3303ZM88.3228 27.1391L89.2688 28.3032C90.8357 27.0299 92.4502 25.782 94.1137 24.5796L93.2349 23.3639L92.3561 22.1483C90.6413 23.3879 88.9818 24.6708 87.3768 25.975L88.3228 27.1391ZM98.3751 19.9074L99.1664 21.1816C100.879 20.118 102.638 19.1169 104.444 18.1966L103.763 16.8601L103.082 15.5237C101.194 16.4858 99.3614 17.5291 97.5837 18.6331L98.3751 19.9074ZM109.407 14.3186L109.953 15.7158C111.814 14.9887 113.722 14.3564 115.676 13.8359L115.29 12.3865L114.904 10.937C112.835 11.4881 110.821 12.156 108.861 12.9215L109.407 14.3186ZM121.349 11.1585L121.556 12.6441C123.506 12.3725 125.502 12.2172 127.544 12.1932L127.527 10.6933L127.509 9.19344C125.337 9.21888 123.215 9.38411 121.142 9.67281L121.349 11.1585ZM133.694 11.0072L133.525 12.4977C135.465 12.7169 137.445 13.0571 139.469 13.5303L139.81 12.0697L140.152 10.6091C138.016 10.1095 135.92 9.7492 133.862 9.51664L133.694 11.0072ZM145.73 13.7935L145.237 15.2102C147.072 15.8487 148.94 16.5975 150.843 17.4647L151.465 16.0999L152.087 14.735C150.103 13.8305 148.148 13.0469 146.223 12.3769L145.73 13.7935ZM156.989 18.8989L156.259 20.2093C157.97 21.1625 159.707 22.2112 161.47 23.3611L162.289 22.1046L163.109 20.8481C161.289 19.6618 159.493 18.5769 157.719 17.5886L156.989 18.8989ZM167.368 25.6425L166.475 26.8477C168.057 28.02 169.66 29.2732 171.283 30.6107L172.237 29.4532L173.191 28.2956C171.529 26.9266 169.886 25.6415 168.261 24.4372L167.368 25.6425ZM176.915 33.4928L175.91 34.6063C177.383 35.9359 178.872 37.3344 180.377 38.8044L181.425 37.7312L182.473 36.658C180.941 35.1616 179.423 33.7361 177.92 32.3792L176.915 33.4928ZM185.793 42.1497L184.708 43.1858C186.093 44.636 187.492 46.1462 188.903 47.7181L190.019 46.7159L191.135 45.7136C189.704 44.1196 188.285 42.5868 186.877 41.1135L185.793 42.1497ZM194.058 51.3399L192.915 52.3114C193.586 53.1007 194.26 53.9037 194.937 54.7208L196.092 53.764L197.247 52.8072C196.562 51.9804 195.88 51.1674 195.201 50.3683L194.058 51.3399Z" fill="#3B5367"/>
</svg>
