<svg width="167" height="62" viewBox="0 0 167 62" fill="none" xmlns="http://www.w3.org/2000/svg">
<path d="M166.222 50.1357L149.781 44.6869L153.283 61.6498L166.222 50.1357ZM96.3327 23.4773L94.8475 23.6877L96.3327 23.4773ZM105.336 25.121L104.339 24L105.336 25.121ZM157.356 51.6951L157.159 50.2082C155.268 50.4594 153.298 50.6718 151.272 50.8333L151.391 52.3286L151.51 53.8238C153.59 53.658 155.613 53.4399 157.554 53.1821L157.356 51.6951ZM145.394 52.6453L145.356 51.1458C143.403 51.1954 141.424 51.1914 139.439 51.1242L139.388 52.6234L139.337 54.1225C141.386 54.1918 143.424 54.1958 145.432 54.1448L145.394 52.6453ZM133.397 52.223L133.548 50.7307C131.585 50.5311 129.637 50.2605 127.722 49.9099L127.452 51.3854L127.182 52.8609C129.182 53.227 131.21 53.5084 133.245 53.7153L133.397 52.223ZM121.603 50.029L122.014 48.5866C120.117 48.0449 118.278 47.4083 116.518 46.6677L115.936 48.0502L115.354 49.4327C117.236 50.2245 119.189 50.9 121.191 51.4714L121.603 50.029ZM110.592 45.3301L111.374 44.0502C109.724 43.0419 108.185 41.9104 106.776 40.6455L105.774 41.7614L104.772 42.8774C106.327 44.2745 108.016 45.5139 109.809 46.61L110.592 45.3301ZM101.752 37.3217L102.963 36.4375C101.873 34.9434 100.921 33.3086 100.128 31.5205L98.7566 32.1287L97.3854 32.7369C98.2653 34.7208 99.3248 36.5405 100.54 38.2059L101.752 37.3217ZM96.8764 26.4302L98.3386 26.0958C98.1305 25.1857 97.9562 24.2431 97.8178 23.2668L96.3327 23.4773L94.8475 23.6877C94.9974 24.7451 95.1868 25.7705 95.4142 26.7646L96.8764 26.4302ZM96.3327 23.4773L97.8178 23.2668C97.6846 22.3269 97.5729 21.4242 97.4813 20.5579L95.9896 20.7155L94.4979 20.8732C94.5934 21.7766 94.7096 22.7145 94.8475 23.6877L96.3327 23.4773ZM95.6548 15.2323L97.1547 15.218C97.1355 13.1987 97.2572 11.4674 97.4856 9.9965L96.0033 9.76635L94.5211 9.53621C94.2633 11.1963 94.1343 13.094 94.1549 15.2466L95.6548 15.2323ZM97.6534 4.57201L98.9553 5.31698C99.8945 3.67556 101.012 3.07974 102.044 2.98836L101.912 1.49421L101.779 6.00228e-05C99.6003 0.193074 97.6872 1.49257 96.3514 3.82704L97.6534 4.57201ZM106.903 3.41391L105.92 4.5469C107.016 5.49782 108.007 6.83608 108.702 8.4376L110.078 7.84091L111.454 7.24423C110.594 5.26026 109.345 3.54636 107.886 2.28093L106.903 3.41391ZM111.208 13.1764L109.708 13.1881C109.72 14.7227 109.441 16.3388 108.777 17.9703L110.166 18.5359L111.555 19.1014C112.372 17.0947 112.723 15.0854 112.708 13.1647L111.208 13.1764ZM107.277 23.1632L106.144 22.1804C105.613 22.7919 105.014 23.3999 104.339 24L105.336 25.121L106.332 26.242C107.1 25.5594 107.791 24.8594 108.41 24.146L107.277 23.1632ZM105.336 25.121L104.339 24C103.594 24.6627 102.826 25.3503 102.042 26.0504L103.041 27.1692L104.04 28.288C104.829 27.584 105.59 26.9017 106.332 26.242L105.336 25.121ZM98.4066 31.2437L97.4302 30.105C95.9212 31.3989 94.3499 32.7039 92.7131 33.9872L93.6386 35.1677L94.5641 36.3481C96.2439 35.0311 97.85 33.6969 99.383 32.3825L98.4066 31.2437ZM88.6679 38.8277L87.8194 37.5908C86.171 38.7216 84.4655 39.8037 82.7014 40.8101L83.4447 42.113L84.1879 43.4159C86.0329 42.3634 87.8086 41.2362 89.5165 40.0646L88.6679 38.8277ZM77.9417 44.9011L77.3352 43.5292C75.5213 44.3312 73.6524 45.0376 71.7269 45.6245L72.1642 47.0593L72.6015 48.4941C74.6514 47.8693 76.6333 47.1197 78.5483 46.273L77.9417 44.9011ZM66.1605 48.4609L65.9201 46.9803C63.9995 47.292 62.0253 47.4773 59.9959 47.5156L60.0241 49.0153L60.0524 50.515C62.2283 50.474 64.3443 50.2753 66.4008 49.9415L66.1605 48.4609ZM53.873 48.6969L54.0544 47.2079C52.1455 46.9754 50.1884 46.6096 48.1818 46.0945L47.8089 47.5474L47.436 49.0003C49.5666 49.5472 51.6517 49.9375 53.6917 50.1859L53.873 48.6969ZM41.9441 45.6685L42.4811 44.2679C40.6821 43.5781 38.845 42.7675 36.9692 41.8259L36.2962 43.1665L35.6233 44.5071C37.5841 45.4914 39.5119 46.3424 41.407 47.069L41.9441 45.6685ZM30.9256 40.1752L31.7081 38.8955C30.0519 37.8827 28.3673 36.7683 26.6541 35.546L25.7829 36.7671L24.9117 37.9881C26.68 39.2498 28.4237 40.4035 30.1431 41.4549L30.9256 40.1752ZM20.8678 33.0259L21.8108 31.8594C20.2859 30.6266 18.7396 29.3092 17.1719 27.9032L16.1704 29.0198L15.1689 30.1365C16.7731 31.5753 18.3583 32.9261 19.9248 34.1924L20.8678 33.0259ZM11.6742 24.8007L12.7239 23.7291C11.3153 22.3494 9.89034 20.8989 8.44879 19.375L7.35908 20.4058L6.2694 21.4366C7.7361 22.9871 9.18776 24.4648 10.6246 25.8722L11.6742 24.8007ZM3.20332 15.8602L4.32674 14.8663C3.64706 14.0981 2.96385 13.3138 2.2771 12.513L1.13851 13.4896L-8.84921e-05 14.4661C0.69652 15.2783 1.38985 16.0743 2.07992 16.8542L3.20332 15.8602Z" fill="#3B5367"/>
</svg>
