<svg width="214" height="53" viewBox="0 0 214 53" fill="none" xmlns="http://www.w3.org/2000/svg">
<path d="M6.13191e-05 30.1824L17.051 33.2264L11.1617 16.9378L6.13191e-05 30.1824ZM93.3418 32.6673L94.6037 31.8563L93.3418 32.6673ZM81.8521 33.7265L82.9055 34.7944L81.8521 33.7265ZM8.76977 27.1851L9.21937 28.6161C11.1028 28.0244 13.0721 27.4366 15.1104 26.8628L14.7039 25.419L14.2974 23.9751C12.23 24.5571 10.232 25.1534 8.32016 25.7541L8.76977 27.1851ZM20.6884 23.8287L21.0522 25.2839C23.0082 24.7949 25.0075 24.3253 27.0377 23.8826L26.7181 22.4171L26.3986 20.9515C24.3376 21.4009 22.3087 21.8774 20.3246 22.3735L20.6884 23.8287ZM32.7875 21.195L33.0594 22.6702C35.0636 22.3009 37.0846 21.9634 39.111 21.6645L38.8921 20.1806L38.6733 18.6966C36.6094 19.0011 34.553 19.3444 32.5157 19.7199L32.7875 21.195ZM45.0335 19.3989L45.1919 20.8905C47.2352 20.6734 49.2717 20.5023 51.2901 20.384L51.2022 18.8865L51.1144 17.3891C49.0454 17.5105 46.9617 17.6856 44.875 17.9072L45.0335 19.3989ZM57.3864 18.6933L57.3896 20.1933C59.4544 20.1889 61.4846 20.25 63.4674 20.3838L63.5683 18.8872L63.6693 17.3906C61.6109 17.2517 59.5109 17.1888 57.3833 17.1933L57.3864 18.6933ZM69.7189 19.5636L69.4868 21.0455C71.5288 21.3655 73.4945 21.7806 75.3682 22.2996L75.7686 20.854L76.169 19.4085C74.1726 18.8555 72.0935 18.4174 69.9511 18.0817L69.7189 19.5636ZM81.5964 22.9347L80.9807 24.3025C82.8267 25.1335 84.5344 26.1018 86.0853 27.2181L86.9616 26.0007L87.8378 24.7832C86.107 23.5375 84.2218 22.4715 82.2121 21.5669L81.5964 22.9347ZM91.5026 30.1782L90.3568 31.1463C90.9763 31.8795 91.5516 32.6561 92.0799 33.4782L93.3418 32.6673L94.6037 31.8563C94.0042 30.9234 93.3512 30.0419 92.6484 29.2101L91.5026 30.1782ZM93.3418 32.6673L92.0799 33.4782C92.6785 34.4096 93.2068 35.2961 93.6701 36.1388L94.9846 35.4163L96.2991 34.6937C95.8 33.7857 95.2361 32.8403 94.6037 31.8563L93.3418 32.6673ZM97.4695 41.3316L96.0194 41.7154C96.6615 44.1408 96.4962 45.8376 95.9888 46.9889L97.3615 47.5938L98.7341 48.1987C99.5956 46.2436 99.6771 43.8097 98.9196 40.9477L97.4695 41.3316ZM92.4017 51.2041L92.1164 49.7314C90.446 50.055 88.4541 49.9076 86.5066 49.3205L86.0737 50.7567L85.6408 52.1929C87.9607 52.8922 90.4515 53.1097 92.6869 52.6767L92.4017 51.2041ZM80.5242 47.6706L81.5462 46.5726C80.1458 45.269 79.3065 43.7216 79.2262 42.0291L77.7279 42.1001L76.2296 42.1712C76.3556 44.8287 77.6773 47.0698 79.5022 48.7685L80.5242 47.6706ZM79.7439 36.1705L80.9659 37.0405C81.4774 36.322 82.1174 35.5717 82.9055 34.7944L81.8521 33.7265L80.7988 32.6586C79.9028 33.5424 79.1462 34.4237 78.522 35.3005L79.7439 36.1705ZM81.8521 33.7265L82.9055 34.7944C83.5902 34.1191 84.2929 33.4211 85.0107 32.7098L83.9548 31.6443L82.899 30.5788C82.1778 31.2935 81.4801 31.9865 80.7988 32.6586L81.8521 33.7265ZM88.1978 27.4983L89.234 28.5829C90.6057 27.2724 92.0426 25.9375 93.5564 24.5994L92.563 23.4755L91.5695 22.3517C90.02 23.7214 88.554 25.0834 87.1616 26.4138L88.1978 27.4983ZM97.1081 19.6581L98.0412 20.8326C99.5306 19.6493 101.089 18.48 102.724 17.3399L101.867 16.1094L101.009 14.8789C99.3175 16.058 97.7088 17.2652 96.1751 18.4836L97.1081 19.6581ZM106.853 12.8817L107.623 14.169C109.252 13.195 110.95 12.2573 112.724 11.3675L112.051 10.0267L111.379 8.6859C109.536 9.61045 107.772 10.5842 106.083 11.5945L106.853 12.8817ZM117.449 7.57212L118.017 8.96031C119.773 8.24162 121.597 7.5719 123.493 6.96017L123.033 5.53258L122.572 4.105C120.601 4.74066 118.706 5.43676 116.88 6.18393L117.449 7.57212ZM128.731 3.9272L129.084 5.38505C130.925 4.9393 132.828 4.54763 134.798 4.21677L134.55 2.73749L134.302 1.2582C132.261 1.60084 130.288 2.00682 128.378 2.46936L128.731 3.9272ZM140.438 1.95269L140.587 3.44528C142.467 3.2577 144.404 3.12404 146.4 3.04921L146.344 1.55026L146.288 0.0513184C144.231 0.128437 142.232 0.266289 140.289 0.460094L140.438 1.95269ZM152.274 1.49969L152.245 2.9994C154.145 3.03663 156.095 3.12541 158.096 3.26937L158.204 1.77324L158.311 0.277102C156.259 0.12947 154.257 0.038249 152.304 -2.53335e-05L152.274 1.49969ZM164.113 2.34213L163.934 3.83145C165.828 4.05859 167.764 4.33337 169.745 4.65846L169.988 3.17826L170.231 1.69806C168.208 1.36612 166.229 1.08521 164.292 0.852806L164.113 2.34213ZM175.821 4.25552L175.52 5.72502C177.393 6.10869 179.304 6.53581 181.253 7.00834L181.607 5.55055L181.96 4.09277C179.977 3.612 178.031 3.17704 176.121 2.78601L175.821 4.25552ZM187.347 7.04328L186.947 8.48874C188.799 9.00229 190.684 9.55546 192.602 10.1498L193.046 8.71695L193.49 7.28412C191.543 6.68115 189.63 6.11954 187.748 5.59782L187.347 7.04328ZM198.709 10.5581L198.226 11.9782C200.051 12.5988 201.905 13.2555 203.788 13.9494L204.307 12.5419L204.825 11.1344C202.919 10.432 201.042 9.76691 199.192 9.13797L198.709 10.5581ZM209.824 14.6483L209.273 16.0434C210.195 16.4072 211.123 16.7796 212.058 17.1608L212.624 15.7718L213.19 14.3828C212.245 13.9975 211.307 13.6209 210.375 13.2531L209.824 14.6483Z" fill="#3B5367"/>
</svg>
