<svg width="112" height="35" viewBox="0 0 112 35" fill="none" xmlns="http://www.w3.org/2000/svg">
<path d="M111.787 29.5146L100.245 29.8562L105.72 19.6898L111.787 29.5146ZM62.0771 23.0396L62.8241 23.7044L62.0771 23.0396ZM102.871 25.0782L102.467 25.9929C100.527 25.1363 98.4768 24.2964 96.364 23.5133L96.7115 22.5756L97.059 21.638C99.213 22.4363 101.301 23.2918 103.275 24.1634L102.871 25.0782ZM90.4049 20.4835L90.1256 21.4437C88.0004 20.8257 85.8643 20.299 83.7612 19.8993L83.948 18.9169L84.1347 17.9345C86.3091 18.3478 88.5074 18.8903 90.6841 19.5233L90.4049 20.4835ZM77.36 18.1034L77.3125 19.1023C75.0428 18.9943 72.8931 19.1023 70.9228 19.4709L70.7389 18.488L70.555 17.505C72.7102 17.1018 75.0195 16.991 77.4075 17.1045L77.36 18.1034ZM64.5823 20.8699L65.1355 21.703C64.2866 22.2667 63.513 22.9304 62.8241 23.7044L62.0771 23.0396L61.3302 22.3747C62.1374 21.4678 63.0423 20.6921 64.0292 20.0368L64.5823 20.8699ZM62.0771 23.0396L62.8241 23.7044C61.9743 24.6591 61.3189 25.5263 60.8269 26.3078L59.9806 25.7751L59.1343 25.2423C59.696 24.3501 60.4219 23.395 61.3302 22.3747L62.0771 23.0396ZM59.5637 32.0735L60.2534 31.3494C60.769 31.8405 61.5938 32.1788 62.6172 32.2838C63.6303 32.3877 64.7488 32.2518 65.7511 31.8918L66.0891 32.8329L66.4271 33.7741C65.1489 34.2331 63.73 34.4084 62.4131 34.2733C61.1066 34.1393 59.809 33.6883 58.8739 32.7975L59.5637 32.0735ZM69.5621 27.6414L68.5809 27.834C68.4344 27.0881 68.0447 26.1933 67.2776 25.1546L68.082 24.5605L68.8864 23.9665C69.7822 25.1793 70.3264 26.3432 70.5434 27.4488L69.5621 27.6414ZM68.082 24.5605L67.2776 25.1546C66.6736 24.3368 66.0567 23.4896 65.3928 22.5974L66.195 22.0004L66.9973 21.4034C67.6616 22.2961 68.2954 23.1662 68.8864 23.9665L68.082 24.5605ZM62.2275 17.0142L61.4728 17.6702C60.1694 16.1708 58.727 14.6632 57.1023 13.2069L57.7698 12.4623L58.4373 11.7176C60.1347 13.2392 61.635 14.8083 62.9822 16.3581L62.2275 17.0142ZM52.7338 8.56952L52.1833 9.40432C50.5338 8.31647 48.7307 7.29995 46.7494 6.38962L47.1669 5.48094L47.5844 4.57226C49.6614 5.52653 51.5532 6.59297 53.2844 7.73472L52.7338 8.56952ZM41.2067 3.24874L40.9221 4.20739C39.0293 3.64547 37.0012 3.17429 34.8243 2.81348L34.9878 1.82694L35.1513 0.8404C37.4079 1.21441 39.5169 1.70397 41.4913 2.29009L41.2067 3.24874ZM28.6646 1.1254L28.6047 2.1236C26.6191 2.00448 24.5276 1.96907 22.3231 2.02792L22.2964 1.02828L22.2697 0.0286363C24.5293 -0.0316837 26.6786 0.00445785 28.7244 0.127192L28.6646 1.1254ZM15.9275 1.43479L16.026 2.42994C14.0274 2.62756 11.9472 2.89622 9.78117 3.24188L9.62358 2.25437L9.46599 1.26687C11.6695 0.915229 13.7893 0.641357 15.8291 0.439644L15.9275 1.43479ZM3.36006 3.42082L3.56715 4.39915C2.5479 4.61489 1.51154 4.84645 0.457697 5.0943L0.22875 4.12086L-0.000196484 3.14742C1.06787 2.89622 2.11882 2.6614 3.15298 2.4425L3.36006 3.42082Z" fill="#3B5367"/>
</svg>
