<svg width="189" height="71" viewBox="0 0 189 71" fill="none" xmlns="http://www.w3.org/2000/svg">
<path d="M0.000117854 59.6525L16.0448 53.1281L13.6728 70.2854L0.000117854 59.6525ZM78.7951 25.3581L80.2876 25.5081L78.7951 25.3581ZM68.5542 27.8011L69.4649 26.6092L68.5542 27.8011ZM8.91946 60.6574L9.03372 59.1617C10.9387 59.3072 12.9192 59.4166 14.955 59.4815L14.9072 60.9807L14.8593 62.48C12.7785 62.4136 10.7537 62.3019 8.8052 62.153L8.91946 60.6574ZM20.9027 61.0392L20.8838 59.5394C22.8332 59.5148 24.8123 59.4462 26.8053 59.3273L26.8946 60.8246L26.9839 62.322C24.9417 62.4438 22.9157 62.514 20.9217 62.5391L20.9027 61.0392ZM32.8686 60.3166L32.7024 58.8258C34.6595 58.6076 36.6143 58.3358 38.5526 58.0047L38.8051 59.4833L39.0577 60.9619C37.0583 61.3034 35.0457 61.5831 33.0348 61.8073L32.8686 60.3166ZM44.6766 58.2812L44.325 56.8229C46.2472 56.3596 48.1357 55.8295 49.9759 55.2271L50.4426 56.6526L50.9093 58.0782C48.9872 58.7074 47.0214 59.2589 45.0281 59.7394L44.6766 58.2812ZM56.0431 54.5252L55.4414 53.1512C57.2464 52.3607 58.9801 51.4856 60.6264 50.52L61.3853 51.8139L62.1442 53.1077C60.3877 54.138 58.5481 55.0657 56.6449 55.8992L56.0431 54.5252ZM66.3299 48.433L65.3944 47.2605C66.9038 46.0561 68.3004 44.7475 69.5673 43.3276L70.6866 44.3263L71.8058 45.325C70.419 46.8792 68.8979 48.3029 67.2655 49.6055L66.3299 48.433ZM74.2402 39.5128L72.9548 38.7398C73.9142 37.1444 74.7396 35.4336 75.4138 33.599L76.8218 34.1164L78.2297 34.6338C77.4899 36.647 76.5823 38.5289 75.5257 40.2859L74.2402 39.5128ZM78.3802 28.3337L76.9039 28.0681C77.0706 27.1422 77.204 26.1891 77.3026 25.2081L78.7951 25.3581L80.2876 25.5081C80.1814 26.5648 80.0372 27.5951 79.8565 28.5994L78.3802 28.3337ZM78.7951 25.3581L77.3026 25.2081C77.4086 24.1533 77.4915 23.1418 77.5528 22.1721L79.0498 22.2668L80.5468 22.3614C80.4831 23.3699 80.3971 24.4184 80.2876 25.5081L78.7951 25.3581ZM79.1517 16.1432L77.6528 16.1995C77.568 13.9402 77.3317 12.0173 76.9834 10.3968L78.4499 10.0816L79.9165 9.76644C80.3077 11.587 80.5606 13.6867 80.6507 16.0869L79.1517 16.1432ZM76.2148 4.44033L74.9822 5.2951C73.8046 3.59702 72.4468 3.00071 71.1471 2.9999L71.148 1.4999L71.1489 -9.87428e-05C73.5474 0.00138866 75.7791 1.17977 77.4474 3.58556L76.2148 4.44033ZM65.6838 3.94226L66.7025 5.04325C65.4766 6.17758 64.3988 7.72471 63.6714 9.53287L62.2798 8.97301L60.8882 8.41314C61.7723 6.21563 63.0966 4.29256 64.6651 2.84126L65.6838 3.94226ZM61.2112 14.9539L62.7105 14.9059C62.7656 16.6292 63.168 18.4244 64.0249 20.2093L62.6727 20.8585L61.3205 21.5078C60.2786 19.3376 59.7802 17.1318 59.712 15.0018L61.2112 14.9539ZM66.2347 25.7836L67.2935 24.721C67.9358 25.3609 68.6573 25.9921 69.4649 26.6092L68.5542 27.8011L67.6435 28.993C66.7366 28.3 65.9155 27.583 65.176 26.8462L66.2347 25.7836ZM68.5542 27.8011L69.4649 26.6092C70.2213 27.1872 70.9961 27.7831 71.7862 28.39L70.8725 29.5795L69.9587 30.7691C69.1665 30.1606 68.3959 29.5679 67.6435 28.993L68.5542 27.8011ZM75.5308 33.1207L76.4283 31.9188C77.9411 33.0484 79.5074 34.191 81.1286 35.3233L80.2697 36.553L79.4108 37.7828C77.757 36.6277 76.1641 35.4657 74.6333 34.3226L75.5308 33.1207ZM85.1358 39.7948L85.9369 38.5267C87.5423 39.5409 89.1944 40.5257 90.8936 41.4624L90.1694 42.776L89.4453 44.0896C87.6877 43.1208 85.9842 42.105 84.3347 41.063L85.1358 39.7948ZM95.3908 45.4189L96.0177 44.0561C97.7394 44.8482 99.504 45.5783 101.312 46.2299L100.803 47.641L100.295 49.0522C98.4003 48.3694 96.5566 47.6063 94.7639 46.7816L95.3908 45.4189ZM106.39 49.3594L106.76 47.9057C108.58 48.3685 110.44 48.7438 112.341 49.0168L112.128 50.5016L111.914 51.9864C109.903 51.6975 107.938 51.3009 106.02 50.8131L106.39 49.3594ZM117.951 51.0088L117.996 49.5095C119.85 49.566 121.741 49.5205 123.67 49.3605L123.794 50.8554L123.918 52.3502C121.874 52.5198 119.87 52.568 117.905 52.5081L117.951 51.0088ZM129.583 50.0508L129.296 48.5785C131.108 48.2253 132.954 47.7681 134.832 47.1972L135.268 48.6324L135.704 50.0676C133.729 50.6679 131.784 51.15 129.87 51.5231L129.583 50.0508ZM140.759 46.6765L140.192 45.2878C141.898 44.5909 143.632 43.7987 145.391 42.9044L146.071 44.2416L146.75 45.5788C144.919 46.5094 143.111 47.3362 141.326 48.0652L140.759 46.6765ZM151.185 41.3987L150.41 40.1144C151.999 39.1555 153.609 38.1129 155.239 36.982L156.094 38.2145L156.949 39.4469C155.269 40.6128 153.606 41.6901 151.96 42.683L151.185 41.3987ZM160.802 34.7467L159.88 33.5636C161.351 32.417 162.838 31.1986 164.341 29.905L165.319 31.0419L166.298 32.1788C164.76 33.5029 163.235 34.7523 161.724 35.9298L160.802 34.7467ZM169.663 27.1353L168.636 26.0413C170.006 24.7561 171.389 23.4088 172.784 21.9969L173.851 23.0513L174.918 24.1056C173.497 25.5435 172.087 26.9173 170.689 28.2293L169.663 27.1353ZM177.905 18.8056L176.803 17.7879C178.088 16.3962 179.384 14.9499 180.69 13.4476L181.822 14.4316L182.954 15.4156C181.629 16.9401 180.313 18.4088 179.007 19.8233L177.905 18.8056ZM185.571 9.99808L184.413 9.04472C185.034 8.2899 185.658 7.52242 186.283 6.74208L187.454 7.68061L188.624 8.61914C187.99 9.40927 187.358 10.1867 186.729 10.9515L185.571 9.99808Z" fill="#3B5367"/>
</svg>
