<svg width="197" height="120" viewBox="0 0 197 120" fill="none" xmlns="http://www.w3.org/2000/svg">
<path d="M188.36 119.898L196.901 104.83L179.581 104.968L188.36 119.898ZM0.360107 8.39823L0.720265 9.85435C1.63976 9.62692 2.573 9.40295 3.51938 9.18278L3.1795 7.7218L2.83962 6.26081C1.87983 6.48409 0.933072 6.71131 -5.00083e-05 6.94211L0.360107 8.39823ZM8.92705 6.46593L9.22798 7.93543C11.1017 7.55173 13.0177 7.18403 14.9718 6.83471L14.7078 5.35812L14.4438 3.88153C12.4652 4.23524 10.5246 4.60766 8.62613 4.99642L8.92705 6.46593ZM20.5177 4.39216L20.7459 5.8747C22.6494 5.58171 24.5831 5.30701 26.5435 5.05256L26.3505 3.56504L26.1574 2.07752C24.1734 2.33502 22.2163 2.61305 20.2895 2.90962L20.5177 4.39216ZM32.1744 2.87822L32.3327 4.36985C34.2499 4.1664 36.1885 3.98314 38.1454 3.82177L38.0221 2.32684L37.8989 0.831916C35.9183 0.995242 33.9564 1.18071 32.0161 1.38659L32.1744 2.87822ZM43.8888 1.91293L43.9766 3.41036C45.9108 3.29701 47.8595 3.20591 49.8202 3.13861L49.7687 1.6395L49.7173 0.14038C47.732 0.208524 45.759 0.300757 43.8011 0.415496L43.8888 1.91293ZM55.6494 1.51041L55.6636 3.01034C57.6006 2.992 59.5463 2.99788 61.4982 3.0294L61.5224 1.52959L61.5467 0.029788C59.5685 -0.00215507 57.5972 -0.00809836 55.6352 0.0104729L55.6494 1.51041ZM67.3993 1.70221L67.3352 3.20084C69.2761 3.28388 71.2205 3.39342 73.1662 3.53084L73.2719 2.03457L73.3776 0.5383C71.4036 0.398869 69.4314 0.287778 67.4635 0.203585L67.3993 1.70221ZM79.1306 2.53333L78.9815 4.0259C80.9147 4.21903 82.8467 4.44105 84.775 4.69333L84.9696 3.20601L85.1642 1.71868C83.2048 1.46234 81.2425 1.23684 79.2797 1.04076L79.1306 2.53333ZM90.7868 4.06159L90.5444 5.54188C92.4628 5.85593 94.375 6.20156 96.2789 6.58012L96.5714 5.10892L96.864 3.63772C94.9258 3.25235 92.9801 2.90068 91.0291 2.58129L90.7868 4.06159ZM102.315 6.35776L101.969 7.81747C103.861 8.26503 105.742 8.7471 107.61 9.26505L108.011 7.81961L108.411 6.37417C106.506 5.84571 104.588 5.35415 102.66 4.89805L102.315 6.35776ZM113.643 9.5043L113.184 10.9323C115.032 11.5266 116.864 12.1584 118.677 12.8292L119.198 11.4224L119.718 10.0155C117.863 9.32932 115.99 8.68342 114.102 8.07632L113.643 9.5043ZM124.662 13.5854L124.078 14.9669C125.864 15.7222 127.629 16.5182 129.37 17.3565L130.021 16.0049L130.672 14.6534C128.885 13.7935 127.076 12.9774 125.246 12.2038L124.662 13.5854ZM135.25 18.6878L134.531 20.0042C136.228 20.931 137.899 21.9016 139.541 22.9175L140.33 21.6419L141.119 20.3662C139.43 19.3212 137.712 18.3234 135.969 17.3714L135.25 18.6878ZM145.241 24.8739L144.38 26.1028C145.959 27.2077 147.507 28.3589 149.022 29.558L149.953 28.3819L150.884 27.2057C149.322 25.9693 147.727 24.7829 146.101 23.645L145.241 24.8739ZM154.446 32.1648L153.445 33.2821C154.876 34.5637 156.272 35.8935 157.631 37.273L158.7 36.2202L159.768 35.1673C158.364 33.7428 156.923 32.37 155.446 31.0474L154.446 32.1648ZM162.698 40.5423L161.565 41.5255C162.816 42.9674 164.031 44.4579 165.206 45.9984L166.398 45.0887L167.591 44.1789C166.378 42.5879 165.123 41.0484 163.831 39.5591L162.698 40.5423ZM169.809 49.8645L168.562 50.6977C169.624 52.2882 170.648 53.9271 171.631 55.6157L172.927 54.8612L174.224 54.1067C173.21 52.3647 172.153 50.6733 171.057 49.0314L169.809 49.8645ZM175.728 60.0252L174.389 60.7007C175.244 62.3957 176.06 64.1366 176.837 65.9245L178.212 65.3271L179.588 64.7296C178.789 62.8894 177.948 61.0963 177.067 59.3496L175.728 60.0252ZM180.409 70.798L179.002 71.3184C179.662 73.103 180.285 74.9309 180.868 76.8031L182.3 76.3569L183.732 75.9107C183.134 73.9892 182.494 72.1117 181.816 70.2775L180.409 70.798ZM183.902 81.9872L182.45 82.3625C182.931 84.2246 183.376 86.1276 183.782 88.0724L185.25 87.7656L186.719 87.4587C186.303 85.4689 185.848 83.5202 185.355 81.612L183.902 81.9872ZM186.316 93.4825L184.836 93.7259C185.147 95.6169 185.423 97.5449 185.665 99.5105L187.154 99.3278L188.642 99.145C188.396 97.1395 188.114 95.1711 187.796 93.2391L186.316 93.4825ZM187.756 105.151L186.261 105.277C186.422 107.183 186.552 109.122 186.648 111.094L188.147 111.021L189.645 110.948C189.546 108.94 189.415 106.966 189.25 105.024L187.756 105.151Z" fill="#3B5367"/>
</svg>
