<svg width="156" height="134" viewBox="0 0 156 134" fill="none" xmlns="http://www.w3.org/2000/svg">
<path d="M155.149 12.6165L143.282 0.000234181L138.289 16.5856L155.149 12.6165ZM1.49967 133.702L2.9994 133.731C3.01734 132.785 3.04429 131.826 3.08056 130.855L1.5816 130.799L0.0826477 130.743C0.0457044 131.733 0.0182288 132.71 -5.89127e-05 133.674L1.49967 133.702ZM1.90455 124.929L3.40064 125.037C3.53802 123.138 3.70976 121.201 3.9177 119.232L2.42599 119.075L0.934289 118.917C0.722889 120.919 0.548227 122.889 0.408456 124.821L1.90455 124.929ZM3.13691 113.242L4.62281 113.447C4.88504 111.548 5.18068 109.626 5.51123 107.686L4.03255 107.434L2.55387 107.182C2.21795 109.153 1.91751 111.106 1.65101 113.036L3.13691 113.242ZM5.11124 101.658L6.5812 101.957C6.9647 100.069 7.3816 98.1702 7.8332 96.2639L6.3736 95.9182L4.914 95.5724C4.45485 97.5105 4.03107 99.4409 3.64128 101.359L5.11124 101.658ZM7.82203 90.2221L9.26945 90.6158C9.77637 88.752 10.3173 86.8854 10.8935 85.0202L9.4603 84.5775L8.02712 84.1348C7.44067 86.0333 6.89025 87.9325 6.37461 89.8284L7.82203 90.2221ZM11.2934 78.9934L12.71 79.4866C13.346 77.6599 14.017 75.8384 14.7244 74.0258L13.327 73.4805L11.9297 72.9352C11.2085 74.7831 10.5246 76.6394 9.87679 78.5002L11.2934 78.9934ZM15.567 68.0524L16.9421 68.6517C17.7152 66.8779 18.5249 65.1168 19.3722 63.372L18.0229 62.7167L16.6737 62.0614C15.8078 63.8442 14.981 65.6427 14.192 67.453L15.567 68.0524ZM20.7025 57.4889L22.022 58.2023C22.9421 56.5003 23.9005 54.8183 24.8985 53.1597L23.6133 52.3863L22.328 51.613C21.3055 53.3122 20.3242 55.0343 19.3829 56.7756L20.7025 57.4889ZM26.7627 47.4279L28.0087 48.2631C29.0846 46.6581 30.2008 45.0802 31.3585 43.5329L30.1574 42.6343L28.9564 41.7357C27.7668 43.3257 26.6206 44.9459 25.5167 46.5926L26.7627 47.4279ZM33.8028 38.028L34.9528 38.9909C36.1905 37.5128 37.4704 36.0687 38.7934 34.662L37.7008 33.6343L36.6082 32.6066C35.2445 34.0564 33.9264 35.5438 32.6527 37.065L33.8028 38.028ZM41.8502 29.4799L42.8787 30.5717C44.2769 29.2546 45.7186 27.9777 47.205 26.7444L46.2471 25.5901L45.2893 24.4357C43.7535 25.7101 42.2646 27.0287 40.8217 28.3881L41.8502 29.4799ZM50.8837 21.9895L51.7646 23.2036C53.3139 22.0795 54.9076 21.0007 56.5466 19.9704L55.7483 18.7004L54.95 17.4305C53.2539 18.4967 51.6052 19.6128 50.0028 20.7754L50.8837 21.9895ZM60.8264 15.7414L61.5376 17.0621C63.2191 16.1566 64.9447 15.3 66.7153 14.4951L66.0945 13.1295L65.4738 11.764C63.6416 12.5969 61.8557 13.4835 60.1153 14.4207L60.8264 15.7414ZM71.5054 10.8835L72.0344 12.2871C73.8111 11.6175 75.6301 10.9977 77.4921 10.4305L77.055 8.99564L76.618 7.56072C74.6941 8.14676 72.8138 8.7874 70.9763 9.47991L71.5054 10.8835ZM82.7259 7.46206L83.0722 8.92153C84.9285 8.4811 86.8251 8.09075 88.7626 7.75287L88.5049 6.27518L88.2472 4.79748C86.2508 5.14561 84.2952 5.54808 82.3796 6.00258L82.7259 7.46206ZM94.2907 5.43615L94.4641 6.92609C96.3454 6.70709 98.2631 6.53568 100.218 6.41386L100.125 4.91677L100.031 3.41967C98.0237 3.54479 96.0526 3.72091 94.1172 3.94622L94.2907 5.43615ZM106.022 4.70079L106.039 6.20069C107.935 6.17884 109.863 6.20196 111.824 6.27164L111.878 4.77259L111.931 3.27353C109.923 3.20222 107.948 3.17848 106.005 3.20089L106.022 4.70079ZM117.722 5.11005L117.603 6.60533C119.521 6.7578 121.469 6.95335 123.448 7.19334L123.629 5.70425L123.809 4.21515C121.79 3.97029 119.8 3.77057 117.841 3.61477L117.722 5.11005ZM129.376 6.51226L129.139 7.99352C131.032 8.29562 132.953 8.63718 134.9 9.01932L135.189 7.54738L135.478 6.07546C133.496 5.68663 131.541 5.33882 129.612 5.03101L129.376 6.51226ZM140.908 8.76808L140.571 10.2298C142.435 10.6593 144.323 11.125 146.236 11.6277L146.617 10.177L146.999 8.72626C145.057 8.21593 143.139 7.74291 141.244 7.30636L140.908 8.76808Z" fill="#3B5367"/>
</svg>
