<svg width="95" height="124" viewBox="0 0 95 124" fill="none" xmlns="http://www.w3.org/2000/svg">
<path d="M80.5848 123.811L94.8506 113.989L79.2109 106.545L80.5848 123.811ZM0.320351 1.46529L-0.000216551 2.93064C0.969212 3.14271 1.95655 3.36986 2.95999 3.61222L3.31216 2.15415L3.66432 0.696072C2.64018 0.448714 1.63177 0.21671 0.640918 -5.4935e-05L0.320351 1.46529ZM9.29704 3.72937L8.88663 5.17213C10.7998 5.71637 12.7538 6.311 14.7377 6.95678L15.202 5.53044L15.6663 4.10409C13.6465 3.44667 11.6567 2.84109 9.70745 2.28661L9.29704 3.72937ZM21.0506 7.5537L20.5343 8.96206C22.4267 9.65577 24.3359 10.3943 26.2532 11.1784L26.8209 9.78996L27.3887 8.40155C25.4366 7.60331 23.493 6.85145 21.5669 6.14535L21.0506 7.5537ZM32.4922 12.2339L31.8726 13.5999C33.7173 14.4366 35.5614 15.3154 37.3975 16.2367L38.0703 14.8961L38.743 13.5554C36.8707 12.6158 34.9911 11.7202 33.1118 10.8678L32.4922 12.2339ZM43.5382 17.7821L42.8103 19.0937C44.5883 20.0805 46.3512 21.1085 48.0917 22.1783L48.8771 20.9004L49.6626 19.6225C47.8827 18.5285 46.0814 17.4781 44.2661 16.4706L43.5382 17.7821ZM54.0655 24.2611L53.2196 25.4998C54.9012 26.6481 56.5534 27.838 58.1693 29.0698L59.0787 27.8769L59.9881 26.684C58.3289 25.4191 56.6342 24.1988 54.9113 23.0223L54.0655 24.2611ZM63.8872 31.7614L62.9111 32.9004C64.4565 34.2248 65.9578 35.592 67.4081 37.0021L68.4538 35.9267L69.4995 34.8513C68.0022 33.3954 66.4543 31.9859 64.8633 30.6225L63.8872 31.7614ZM72.7351 40.3829L71.6176 41.3835C72.9708 42.8947 74.2646 44.4499 75.4919 46.0496L76.682 45.1365L77.8721 44.2235C76.5966 42.561 75.2541 40.9475 73.8526 39.3823L72.7351 40.3829ZM80.2401 50.1882L78.9787 50.9998C80.0694 52.6951 81.0861 54.4357 82.0217 56.2219L83.3505 55.5259L84.6792 54.8299C83.7008 52.9619 82.6389 51.1443 81.5016 49.3766L80.2401 50.1882ZM85.9564 61.1253L84.5678 61.6926C85.3236 63.5425 85.9941 65.4376 86.5724 67.3788L88.0099 66.9505L89.4475 66.5222C88.8405 64.4849 88.1372 62.497 87.345 60.558L85.9564 61.1253ZM89.4771 72.9532L88.0041 73.2363C88.3785 75.1846 88.6622 77.1766 88.8489 79.2129L90.3426 79.0759L91.8364 78.939C91.6407 76.8045 91.3431 74.7149 90.9501 72.6701L89.4771 72.9532ZM90.6127 85.255L89.1127 85.2501C89.1062 87.2216 89.0108 89.2327 88.8211 91.2839L90.3148 91.422L91.8084 91.5601C92.0061 89.4217 92.1059 87.3217 92.1126 85.2599L90.6127 85.255ZM89.4901 97.5458L88.0128 97.2856C87.6703 99.2307 87.2447 101.21 86.7321 103.224L88.1858 103.594L89.6394 103.964C90.17 101.879 90.6115 99.8267 90.9674 97.806L89.4901 97.5458ZM86.4602 109.516L85.0348 109.049C84.4209 110.922 83.7332 112.823 82.9687 114.754L84.3633 115.306L85.7579 115.858C86.544 113.874 87.2524 111.915 87.8856 109.983L86.4602 109.516Z" fill="#3B5367"/>
</svg>
