<svg width="95" height="124" viewBox="0 0 95 124" fill="none" xmlns="http://www.w3.org/2000/svg">
<path d="M14.2657 123.811L-9.98075e-06 113.989L15.6397 106.545L14.2657 123.811ZM94.5302 1.46529L94.8508 2.93064C93.8814 3.14271 92.894 3.36986 91.8906 3.61222L91.5384 2.15415L91.1863 0.696072C92.2104 0.448714 93.2188 0.21671 94.2097 -5.4935e-05L94.5302 1.46529ZM85.5535 3.72937L85.964 5.17213C84.0508 5.71637 82.0968 6.311 80.1129 6.95678L79.6486 5.53044L79.1843 4.10409C81.2041 3.44667 83.1939 2.84109 85.1431 2.28661L85.5535 3.72937ZM73.8 7.5537L74.3163 8.96206C72.4239 9.65577 70.5147 10.3943 68.5974 11.1784L68.0297 9.78996L67.4619 8.40155C69.414 7.60331 71.3575 6.85145 73.2837 6.14535L73.8 7.5537ZM62.3584 12.2339L62.9779 13.5999C61.1333 14.4366 59.2892 15.3154 57.4531 16.2367L56.7803 14.8961L56.1075 13.5554C57.9799 12.6158 59.8595 11.7202 61.7388 10.8678L62.3584 12.2339ZM51.3124 17.7821L52.0403 19.0937C50.2622 20.0805 48.4994 21.1085 46.7589 22.1783L45.9734 20.9004L45.188 19.6225C46.9678 18.5285 48.7691 17.4781 50.5845 16.4706L51.3124 17.7821ZM40.7851 24.2611L41.631 25.4998C39.9494 26.6481 38.2972 27.838 36.6813 29.0698L35.7719 27.8769L34.8625 26.684C36.5217 25.4191 38.2164 24.1988 39.9392 23.0223L40.7851 24.2611ZM30.9634 31.7614L31.9395 32.9004C30.3941 34.2248 28.8928 35.592 27.4425 37.0021L26.3968 35.9267L25.3511 34.8513C26.8484 33.3954 28.3963 31.9859 29.9873 30.6225L30.9634 31.7614ZM22.1155 40.3829L23.2329 41.3835C21.8798 42.8947 20.586 44.4499 19.3587 46.0496L18.1686 45.1365L16.9785 44.2235C18.254 42.561 19.5965 40.9475 20.998 39.3823L22.1155 40.3829ZM14.6105 50.1882L15.8719 50.9998C14.7812 52.6951 13.7645 54.4357 12.8289 56.2219L11.5001 55.5259L10.1714 54.8299C11.1498 52.9619 12.2117 51.1443 13.349 49.3766L14.6105 50.1882ZM8.89421 61.1253L10.2828 61.6926C9.527 63.5425 8.85652 65.4376 8.2782 67.3788L6.84064 66.9505L5.40308 66.5222C6.01005 64.4849 6.71342 62.497 7.50563 60.558L8.89421 61.1253ZM5.37348 72.9532L6.84653 73.2363C6.47209 75.1846 6.18838 77.1766 6.00168 79.2129L4.50795 79.0759L3.01421 78.939C3.20991 76.8045 3.50745 74.7149 3.90044 72.6701L5.37348 72.9532ZM4.23793 85.255L5.73792 85.2501C5.7444 87.2216 5.83983 89.2327 6.02945 91.2839L4.53583 91.422L3.04219 91.5601C2.8445 89.4217 2.74471 87.3217 2.73794 85.2599L4.23793 85.255ZM5.3605 97.5458L6.83776 97.2856C7.18033 99.2307 7.60588 101.21 8.11847 103.224L6.66482 103.594L5.21117 103.964C4.68056 101.879 4.23913 99.8267 3.88323 97.806L5.3605 97.5458ZM8.39041 109.516L9.81583 109.049C10.4297 110.922 11.1174 112.823 11.8818 114.754L10.4873 115.306L9.09265 115.858C8.30655 113.874 7.59821 111.915 6.96499 109.983L8.39041 109.516Z" fill="#3B5367"/>
</svg>
