<svg width="16" height="16" viewBox="0 0 16 16" fill="none" xmlns="http://www.w3.org/2000/svg">
<path d="M3.19767 12.8047C3.45802 13.0651 3.88013 13.0651 4.14048 12.8047L7.39878 9.54325C7.91904 9.02248 7.91883 8.17861 7.39831 7.6581L4.13807 4.39785C3.87772 4.1375 3.45561 4.1375 3.19526 4.39785C2.93491 4.6582 2.93491 5.08031 3.19526 5.34066L5.98569 8.13109C6.24604 8.39144 6.24604 8.81355 5.98569 9.0739L3.19767 11.8619C2.93732 12.1223 2.93732 12.5444 3.19767 12.8047Z" fill="white"/>
<path d="M8.19767 12.8047C8.45802 13.0651 8.88013 13.0651 9.14048 12.8047L12.3988 9.54325C12.919 9.02248 12.9188 8.17861 12.3983 7.6581L9.13807 4.39785C8.87772 4.1375 8.45561 4.1375 8.19526 4.39785C7.93491 4.6582 7.93491 5.08031 8.19526 5.34066L10.9857 8.13109C11.246 8.39144 11.246 8.81355 10.9857 9.0739L8.19767 11.8619C7.93732 12.1223 7.93732 12.5444 8.19767 12.8047Z" fill="white"/>
</svg>
