<svg width="24" height="24" viewBox="0 0 24 24" fill="none" xmlns="http://www.w3.org/2000/svg">
<mask id="mask0_2253_3385" style="mask-type:luminance" maskUnits="userSpaceOnUse" x="0" y="0" width="22" height="23">
<path d="M21.5083 9.66396H11.601V13.7719H17.3038C16.7721 16.3816 14.549 17.8798 11.601 17.8798C8.12136 17.8798 5.31831 15.0767 5.31831 11.5971C5.31831 8.11745 8.12136 5.3144 11.601 5.3144C13.0992 5.3144 14.4524 5.84601 15.5156 6.71593L18.6086 3.62291C16.7238 1.97974 14.3074 0.964844 11.601 0.964844C5.70494 0.964844 0.96875 5.70103 0.96875 11.5971C0.96875 17.4932 5.70494 22.2293 11.601 22.2293C16.9171 22.2293 21.75 18.3631 21.75 11.5971C21.75 10.9688 21.6533 10.2922 21.5083 9.66396Z" fill="white"/>
</mask>
<g mask="url(#mask0_2253_3385)">
<path d="M0 17.8818V5.31641L8.21583 11.5991L0 17.8818Z" fill="#FBBC05"/>
</g>
<mask id="mask1_2253_3385" style="mask-type:luminance" maskUnits="userSpaceOnUse" x="0" y="0" width="22" height="23">
<path d="M21.5083 9.66396H11.601V13.7719H17.3038C16.7721 16.3816 14.549 17.8798 11.601 17.8798C8.12136 17.8798 5.31831 15.0767 5.31831 11.5971C5.31831 8.11745 8.12136 5.3144 11.601 5.3144C13.0992 5.3144 14.4524 5.84601 15.5156 6.71593L18.6086 3.62291C16.7238 1.97974 14.3074 0.964844 11.601 0.964844C5.70494 0.964844 0.96875 5.70103 0.96875 11.5971C0.96875 17.4932 5.70494 22.2293 11.601 22.2293C16.9171 22.2293 21.75 18.3631 21.75 11.5971C21.75 10.9688 21.6533 10.2922 21.5083 9.66396Z" fill="white"/>
</mask>
<g mask="url(#mask1_2253_3385)">
<path d="M0 5.31613L8.21583 11.5988L11.5988 8.65079L23.1976 6.76598V0H0V5.31613Z" fill="#EA4335"/>
</g>
<mask id="mask2_2253_3385" style="mask-type:luminance" maskUnits="userSpaceOnUse" x="0" y="0" width="22" height="23">
<path d="M21.5083 9.66396H11.601V13.7719H17.3038C16.7721 16.3816 14.549 17.8798 11.601 17.8798C8.12136 17.8798 5.31831 15.0767 5.31831 11.5971C5.31831 8.11745 8.12136 5.3144 11.601 5.3144C13.0992 5.3144 14.4524 5.84601 15.5156 6.71593L18.6086 3.62291C16.7238 1.97974 14.3074 0.964844 11.601 0.964844C5.70494 0.964844 0.96875 5.70103 0.96875 11.5971C0.96875 17.4932 5.70494 22.2293 11.601 22.2293C16.9171 22.2293 21.75 18.3631 21.75 11.5971C21.75 10.9688 21.6533 10.2922 21.5083 9.66396Z" fill="white"/>
</mask>
<g mask="url(#mask2_2253_3385)">
<path d="M0 17.8815L14.4985 6.76598L18.3165 7.24926L23.1976 0V23.1976H0V17.8815Z" fill="#34A853"/>
</g>
<mask id="mask3_2253_3385" style="mask-type:luminance" maskUnits="userSpaceOnUse" x="0" y="0" width="22" height="23">
<path d="M21.5083 9.66396H11.601V13.7719H17.3038C16.7721 16.3816 14.549 17.8798 11.601 17.8798C8.12136 17.8798 5.31831 15.0767 5.31831 11.5971C5.31831 8.11745 8.12136 5.3144 11.601 5.3144C13.0992 5.3144 14.4524 5.84601 15.5156 6.71593L18.6086 3.62291C16.7238 1.97974 14.3074 0.964844 11.601 0.964844C5.70494 0.964844 0.96875 5.70103 0.96875 11.5971C0.96875 17.4932 5.70494 22.2293 11.601 22.2293C16.9171 22.2293 21.75 18.3631 21.75 11.5971C21.75 10.9688 21.6533 10.2922 21.5083 9.66396Z" fill="white"/>
</mask>
<g mask="url(#mask3_2253_3385)">
<path d="M23.204 23.1979L8.2222 11.5991L6.28906 10.1492L23.204 5.31641V23.1979Z" fill="#4285F4"/>
</g>
</svg>
