<svg width="18" height="18" viewBox="0 0 18 18" fill="none" xmlns="http://www.w3.org/2000/svg">
<path fill-rule="evenodd" clip-rule="evenodd" d="M7.90532 0.369712C8.09018 0.130487 8.3729 0 8.67737 0C8.98184 0 9.26456 0.141361 9.44941 0.369712L10.2976 1.46798C10.3628 1.55497 10.4607 1.62021 10.5694 1.64196C10.6782 1.67458 10.7869 1.66371 10.8956 1.62021L12.1788 1.09826C12.4615 0.989524 12.766 1.01127 13.0269 1.15263C13.2879 1.30487 13.4619 1.56584 13.5054 1.85944L13.7011 3.22955C13.712 3.33829 13.7663 3.43615 13.8425 3.51227C13.9186 3.58838 14.0164 3.64275 14.1252 3.65363L15.4953 3.84936C15.7889 3.89285 16.0499 4.06684 16.2021 4.32781C16.3543 4.58878 16.3761 4.90413 16.2565 5.17597L15.7345 6.45909C15.691 6.55696 15.691 6.67657 15.7128 6.78531C15.7454 6.89405 15.7998 6.98104 15.8868 7.05716L16.985 7.91619C17.2242 8.10105 17.3547 8.38377 17.3547 8.68824C17.3547 8.99271 17.2134 9.27543 16.985 9.46029L15.8868 10.3085C15.7998 10.3737 15.7345 10.4716 15.7128 10.5803C15.6802 10.689 15.691 10.7978 15.7345 10.9065L16.2565 12.1896C16.3652 12.4724 16.3435 12.7768 16.2021 13.0378C16.0499 13.2988 15.7889 13.4728 15.4953 13.5162L14.1252 13.712C14.0164 13.7229 13.9186 13.7772 13.8425 13.8533C13.7663 13.9295 13.712 14.0273 13.7011 14.1361L13.5054 15.517C13.4619 15.8106 13.2879 16.0716 13.0269 16.2238C12.766 16.3761 12.4506 16.3978 12.1788 16.2782L10.8956 15.7563C10.7978 15.7128 10.6782 15.7128 10.5694 15.7345C10.4607 15.7671 10.3737 15.8215 10.2976 15.9085L9.44941 17.0068C9.26456 17.246 8.98184 17.3765 8.67737 17.3765C8.3729 17.3765 8.09018 17.2351 7.90532 17.0068L7.05716 15.9085C6.99191 15.8215 6.89405 15.7563 6.78531 15.7345C6.67657 15.7019 6.56783 15.7128 6.45909 15.7563L5.17597 16.2782C4.89325 16.387 4.58878 16.3652 4.32781 16.2238C4.06684 16.0716 3.89285 15.8106 3.84936 15.517L3.65363 14.1361C3.64275 14.0273 3.58838 13.9295 3.51227 13.8533C3.43615 13.7772 3.33829 13.7229 3.22955 13.712L1.85944 13.5162C1.56584 13.4728 1.30487 13.2988 1.15263 13.0378C1.0004 12.7768 0.97865 12.4615 1.09826 12.1896L1.62021 10.9065C1.66371 10.8087 1.66371 10.689 1.64196 10.5803C1.60934 10.4716 1.55497 10.3846 1.46798 10.3085L0.369712 9.46029C0.130487 9.27543 0 8.99271 0 8.68824C0 8.38377 0.141361 8.10105 0.369712 7.91619L1.46798 7.05716C1.55497 6.99191 1.62021 6.89405 1.64196 6.78531C1.67458 6.67657 1.66371 6.56783 1.62021 6.45909L1.09826 5.17597C0.989524 4.89325 1.01127 4.58878 1.15263 4.32781C1.30487 4.06684 1.56584 3.89285 1.85944 3.84936L3.22955 3.65363C3.33829 3.64275 3.43615 3.58838 3.51227 3.51227C3.58838 3.43615 3.64275 3.33829 3.65363 3.22955L3.84936 1.85944C3.89285 1.56584 4.06684 1.30487 4.32781 1.15263C4.58878 1.0004 4.90413 0.97865 5.17597 1.09826L6.45909 1.62021C6.55696 1.66371 6.67657 1.66371 6.78531 1.64196C6.89405 1.60934 6.98104 1.55497 7.05716 1.46798L7.90532 0.369712Z" fill="#4285F4"/>
<path fill-rule="evenodd" clip-rule="evenodd" d="M8.39484 8.75624L11.1024 6.03777C11.309 5.83116 11.6353 5.83116 11.831 6.03777L12.5595 6.76632C12.7661 6.97292 12.7661 7.29914 12.5595 7.49487L8.9494 11.1159C8.9494 11.1159 8.92766 11.1485 8.91678 11.1594L8.18823 11.8879C8.09037 11.9858 7.94901 12.0402 7.81852 12.0402C7.68803 12.0402 7.55755 11.9858 7.44881 11.8879L6.72026 11.1594C6.72026 11.1594 6.69851 11.1376 6.68764 11.1159L4.79558 9.22382C4.58897 9.01721 4.58897 8.70187 4.79558 8.49527L5.52413 7.76671C5.73073 7.56011 6.05695 7.56011 6.25268 7.76671L7.68803 9.20207L7.81852 9.33255L9.2865 10.7788L8.39484 8.75624Z" fill="white"/>
</svg>
