<svg width="32" height="32" viewBox="0 0 32 32" fill="none" xmlns="http://www.w3.org/2000/svg">
<circle cx="16" cy="16" r="16" fill="#FAB600"/>
<mask id="path-2-inside-1_2253_2919" fill="white">
<path d="M25.3584 9.84753C25.0363 9.51746 24.5142 9.51746 24.1922 9.84753L13.8324 20.4662C13.5104 20.7963 12.9883 20.7963 12.6663 20.4662L8.87421 16.5794C8.55219 16.2493 8.03009 16.2493 7.70807 16.5794C7.38605 16.9095 7.38605 17.4446 7.70807 17.7747L11.5046 21.659C12.4709 22.6476 14.0358 22.6469 15.0013 21.6574L25.3584 11.0428C25.6804 10.7127 25.6804 10.1776 25.3584 9.84753Z"/>
</mask>
<path d="M25.3584 9.84753C25.0363 9.51746 24.5142 9.51746 24.1922 9.84753L13.8324 20.4662C13.5104 20.7963 12.9883 20.7963 12.6663 20.4662L8.87421 16.5794C8.55219 16.2493 8.03009 16.2493 7.70807 16.5794C7.38605 16.9095 7.38605 17.4446 7.70807 17.7747L11.5046 21.659C12.4709 22.6476 14.0358 22.6469 15.0013 21.6574L25.3584 11.0428C25.6804 10.7127 25.6804 10.1776 25.3584 9.84753Z" fill="white"/>
<path d="M24.1922 9.84753L22.7607 8.45087L22.7607 8.45087L24.1922 9.84753ZM25.3584 9.84753L26.7899 8.45087L26.7899 8.45087L25.3584 9.84753ZM8.87421 16.5794L7.44265 17.976H7.44266L8.87421 16.5794ZM7.70807 16.5794L9.13962 17.976L9.13963 17.976L7.70807 16.5794ZM7.70807 17.7747L6.27651 19.1713L6.27778 19.1726L7.70807 17.7747ZM25.3584 11.0428L26.7898 12.4395L26.7899 12.4395L25.3584 11.0428ZM11.5046 21.659L12.9349 20.261L11.5046 21.659ZM15.0013 21.6574L13.5698 20.2607V20.2607L15.0013 21.6574ZM13.8324 20.4662L15.264 21.8629V21.8629L13.8324 20.4662ZM12.6663 20.4662L14.0978 19.0695V19.0695L12.6663 20.4662ZM24.1922 9.84753L25.6238 11.2442C25.161 11.7186 24.3896 11.7186 23.9268 11.2442L25.3584 9.84753L26.7899 8.45087C25.6831 7.31635 23.8675 7.31635 22.7607 8.45087L24.1922 9.84753ZM13.8324 20.4662L15.264 21.8629L25.6238 11.2442L24.1922 9.84753L22.7607 8.45087L12.4009 19.0695L13.8324 20.4662ZM8.87421 16.5794L7.44266 17.976L11.2347 21.8629L12.6663 20.4662L14.0978 19.0695L10.3058 15.1827L8.87421 16.5794ZM7.70807 16.5794L9.13963 17.976C8.6768 18.4504 7.90548 18.4504 7.44265 17.976L8.87421 16.5794L10.3058 15.1827C9.1989 14.0482 7.38338 14.0482 6.27651 15.1827L7.70807 16.5794ZM7.70807 17.7747L9.13962 16.378C9.57553 16.8248 9.57553 17.5292 9.13962 17.976L7.70807 16.5794L6.27652 15.1827C5.19657 16.2897 5.19656 18.0644 6.27651 19.1713L7.70807 17.7747ZM25.3584 9.84753L23.9268 11.2442C23.4909 10.7974 23.4909 10.0929 23.9268 9.64615L25.3584 11.0428L26.7899 12.4395C27.8699 11.3325 27.8699 9.5578 26.7899 8.45087L25.3584 9.84753ZM11.5046 21.659L12.9349 20.261L9.13835 16.3767L7.70807 17.7747L6.27778 19.1726L10.0743 23.0569L11.5046 21.659ZM25.3584 11.0428L23.9269 9.64607L13.5698 20.2607L15.0013 21.6574L16.4328 23.0542L26.7898 12.4395L25.3584 11.0428ZM11.5046 21.659L10.0743 23.0569C11.8256 24.8488 14.683 24.8475 16.4328 23.0542L15.0013 21.6574L13.5698 20.2607C13.3887 20.4463 13.1161 20.4464 12.9349 20.261L11.5046 21.659ZM13.8324 20.4662L12.4009 19.0695C12.8637 18.5951 13.635 18.5952 14.0978 19.0695L12.6663 20.4662L11.2347 21.8629C12.3416 22.9974 14.1571 22.9974 15.264 21.8629L13.8324 20.4662Z" fill="white" mask="url(#path-2-inside-1_2253_2919)"/>
</svg>
