<svg width="88" height="14" viewBox="0 0 88 14" fill="none" xmlns="http://www.w3.org/2000/svg">
<path d="M40.0119 6.03512C41.8524 6.09673 43.695 6.09154 45.5295 6.2332C48.5196 6.46258 51.512 6.71878 54.4285 7.67684C54.8559 7.81597 55.2777 8.0218 55.682 8.26269C56.1986 8.56977 56.5773 9.08622 56.5329 9.92286C56.4885 10.7595 56.0484 11.1995 55.5125 11.4669C54.6071 11.9225 53.6643 12.1272 52.7218 12.323C48.6222 13.1711 44.5073 13.5995 40.3708 13.6928C39.0936 13.7214 37.816 13.857 36.5423 13.7787C36.2941 13.7614 35.8937 13.8951 35.8695 13.4441C35.8412 12.9215 36.243 12.9439 36.5296 12.8866C40.275 12.156 44.0353 11.6667 47.7916 11.1014C49.6204 10.8238 51.4499 10.5284 53.2738 9.81376C52.712 9.6835 52.1518 9.50425 51.5846 9.43622C45.8226 8.72173 40.038 8.38543 34.2452 8.39212C30.3834 8.39659 26.5237 8.43233 22.6813 7.95597C22.4759 7.93126 22.2674 7.90199 22.067 7.82841C21.582 7.65168 21.1638 7.33898 21.1772 6.54588C21.1904 5.76169 21.6111 5.41467 22.1071 5.26186C22.6296 5.10103 23.1594 5.01177 23.6812 4.77512C21.8639 4.99961 20.0478 5.18847 18.2356 5.4577C13.1802 6.21576 8.12401 6.99608 3.07008 7.80769C2.287 7.93305 1.46293 7.91438 0.756459 8.5862C0.49967 8.82726 0.214086 8.75528 0.0766832 8.36282C-0.108402 7.83057 0.0537586 7.38572 0.434172 7.16663C1.18519 6.72813 1.99428 6.60809 2.78761 6.4697C10.9974 5.04152 19.2157 3.74738 27.451 2.73021C33.9085 1.92993 40.375 1.25031 46.8493 0.829535C51.8378 0.506135 56.8237 0.258435 61.8132 0.100021C69.2796 -0.140429 76.7273 0.0776876 84.1752 0.487507C85.1486 0.542383 86.1162 0.770939 87.0819 0.9593C87.4883 1.03978 87.8229 1.30954 87.7873 1.98153C87.7541 2.58227 87.4235 2.78073 87.0533 2.88871C85.2948 3.4094 83.5065 3.45208 81.729 3.56644C76.8323 3.884 71.9322 4.10782 67.0342 4.36737C62.405 4.61364 57.7729 4.85089 53.1431 5.11496C48.7657 5.3652 44.3871 5.65552 40.0124 5.92368C40.0112 5.9593 40.01 5.99492 40.0088 6.03055L40.0119 6.03512ZM81.2241 1.93123C62.8488 1.23139 44.4917 2.33325 26.1469 4.53668C44.5016 3.30991 62.8661 2.86365 81.2241 1.93123Z" fill="#54BBAF"/>
</svg>
