<svg width="177" height="55" viewBox="0 0 177 55" fill="none" xmlns="http://www.w3.org/2000/svg">
<path d="M48.8332 33.1736C47.1654 33.1736 45.7367 32.7977 44.5337 32.0457C43.3375 31.2938 42.4215 30.1454 41.7858 28.6074C41.1501 27.0625 40.8356 25.1143 40.8356 22.7629C40.8356 20.4114 41.1706 18.429 41.8405 16.8978C42.5103 15.3666 43.4468 14.2319 44.643 13.48C45.8393 12.7281 47.2406 12.3521 48.8332 12.3521C50.6173 12.3521 52.2237 12.7759 53.6386 13.6304C55.0604 14.4848 56.1883 15.6879 57.0222 17.2396C57.8562 18.7913 58.2732 20.637 58.2732 22.7629C58.2732 24.8888 57.8562 26.7002 57.0222 28.2519C56.1883 29.8036 55.0604 31.0135 53.6386 31.8817C52.2168 32.743 50.6173 33.1805 48.8332 33.1805V33.1736ZM37.6366 32.8729V4.97639H43.1324V16.7406L42.7769 22.715L42.8863 28.7304V32.866H37.6366V32.8729ZM47.8831 28.3613C48.7991 28.3613 49.6125 28.1357 50.3302 27.6846C51.048 27.2334 51.6222 26.5909 52.0596 25.7501C52.4971 24.9093 52.709 23.9113 52.709 22.7629C52.709 21.6145 52.4903 20.5823 52.0596 19.7552C51.6222 18.928 51.048 18.2923 50.3302 17.8412C49.6125 17.39 48.7991 17.1644 47.8831 17.1644C46.9671 17.1644 46.1469 17.39 45.4155 17.8412C44.6841 18.2923 44.1099 18.928 43.6861 19.7552C43.2623 20.5823 43.0504 21.5871 43.0504 22.7629C43.0504 23.9386 43.2623 24.9093 43.6861 25.7501C44.1099 26.5909 44.6841 27.2334 45.4155 27.6846C46.1469 28.1357 46.9671 28.3613 47.8831 28.3613ZM61.937 32.8729V12.646H67.1867V18.3607L66.4485 16.7064C67.009 15.2778 67.9181 14.1909 69.1622 13.4526C70.4063 12.7144 71.9238 12.3453 73.7078 12.3453V17.7591C73.4754 17.7318 73.2635 17.7181 73.0721 17.7044C72.8876 17.6908 72.6825 17.6839 72.4706 17.6839C70.9668 17.6839 69.7501 18.1419 68.8273 19.0579C67.8976 19.9739 67.4328 21.3957 67.4328 23.3234V32.8729H61.937ZM87.3721 32.8729V28.9287L87.0167 28.0674V20.9993C87.0167 19.7483 86.6612 18.7708 85.9435 18.0667C85.2258 17.3627 84.1321 17.014 82.6488 17.014C81.6371 17.014 80.6459 17.1849 79.6753 17.5199C78.6978 17.8548 77.8707 18.3128 77.194 18.8939L75.2185 14.7993C76.2507 14.02 77.4948 13.4185 78.9507 12.9947C80.4067 12.5708 81.8832 12.3589 83.387 12.3589C86.2784 12.3589 88.5205 13.0835 90.1132 14.5395C91.7127 15.9955 92.5056 18.2581 92.5056 21.341V32.8797H87.3653L87.3721 32.8729ZM81.5961 33.1736C80.1196 33.1736 78.8482 32.907 77.7887 32.367C76.7292 31.827 75.9226 31.0956 75.3552 30.1659C74.7947 29.2363 74.5076 28.1972 74.5076 27.0488C74.5076 25.9004 74.781 24.7931 75.3347 23.8908C75.8884 22.9884 76.7633 22.2775 77.9596 21.7649C79.1558 21.2522 80.7211 20.9924 82.6419 20.9924H87.6797V24.4103H83.2435C81.9515 24.4103 81.0629 24.6358 80.5844 25.087C80.1059 25.5382 79.8598 26.1055 79.8598 26.7823C79.8598 27.5342 80.1333 28.1289 80.687 28.5664C81.2406 29.0039 81.9994 29.2226 82.9564 29.2226C83.9133 29.2226 84.6926 28.9902 85.424 28.5254C86.1486 28.0605 86.6817 27.377 87.0098 26.4746L87.8575 29.1816C87.461 30.4872 86.7296 31.4715 85.6769 32.1483C84.6174 32.825 83.2571 33.16 81.5892 33.16L81.5961 33.1736ZM97.5503 32.8729L97.4819 12.646L102.944 12.6802L102.978 32.866H97.5503V32.8729ZM100.23 9.82289C99.2182 9.82289 98.3979 9.50845 97.7622 8.87957C97.1265 8.25068 96.812 7.47825 96.812 6.5486C96.812 5.61894 97.1265 4.84651 97.7622 4.21762C98.3979 3.58874 99.2182 3.28113 100.23 3.28113C101.241 3.28113 102.062 3.57507 102.697 4.16294C103.333 4.75081 103.648 5.50957 103.648 6.43922C103.648 7.41673 103.333 8.22334 102.711 8.8659C102.089 9.50162 101.262 9.82289 100.23 9.82289ZM119.602 12.3453C121.106 12.3453 122.452 12.6665 123.635 13.3023C124.824 13.938 125.754 14.9155 126.437 16.2348C127.121 17.5472 127.456 19.2356 127.456 21.2932V32.8729H121.96V22.1955C121.96 20.5686 121.625 19.3655 120.955 18.5863C120.285 17.807 119.342 17.4242 118.118 17.4242C117.25 17.4242 116.471 17.6156 115.774 18.0052C115.083 18.3949 114.543 18.9896 114.154 19.7893C113.764 20.5891 113.573 21.6213 113.573 22.8722V32.8729H108.077V12.646H113.327V18.2445L112.342 16.5561C113.026 15.2026 113.997 14.1636 115.268 13.439C116.539 12.7144 117.982 12.3521 119.602 12.3521V12.3453Z" fill="#54BBAF"/>
<path d="M139.774 32.9207C138.188 32.9207 136.766 32.5994 135.522 31.9637C134.278 31.328 133.307 30.3505 132.624 29.038C131.933 27.7256 131.591 26.0508 131.591 24.0138V13.0357H127.155L130.812 9.21793L134.469 5.4002L141.735 13.0357H137.149V23.1662C137.149 24.8136 137.484 26.0167 138.16 26.7891C138.837 27.5615 139.794 27.9512 141.024 27.9512C141.879 27.9512 142.638 27.7598 143.301 27.3838C143.964 27.001 144.49 26.4131 144.866 25.6133C145.249 24.8136 145.433 23.8156 145.433 22.6125V12.8238H150.984V32.6268H145.72V27.1787L146.684 28.7646C146.042 30.1386 145.098 31.1776 143.854 31.8748C142.61 32.5721 141.25 32.9275 139.78 32.9275L139.774 32.9207ZM167.458 32.9207C165.844 32.9207 164.429 32.5516 163.22 31.8133C162.01 31.0751 161.066 29.954 160.39 28.4433C159.713 26.9326 159.378 25.0255 159.378 22.7219C159.378 20.4182 159.699 18.4769 160.342 16.9799C160.984 15.4828 161.907 14.3686 163.117 13.6304C164.327 12.8921 165.776 12.523 167.458 12.523C169.262 12.523 170.882 12.9468 172.318 13.7944C173.753 14.6421 174.895 15.8246 175.735 17.349C176.576 18.8734 177 20.6643 177 22.7219C177 24.7794 176.576 26.6114 175.735 28.1357C174.895 29.6601 173.753 30.8358 172.318 31.6698C170.882 32.5037 169.262 32.9207 167.458 32.9207ZM156.145 39.7632V12.8169H161.449V16.8637L161.34 22.756L161.695 28.6074V39.7632H156.145ZM166.494 28.2041C167.417 28.2041 168.244 27.9853 168.968 27.541C169.693 27.0967 170.274 26.4678 170.711 25.6475C171.149 24.8272 171.367 23.8497 171.367 22.7219C171.367 21.594 171.149 20.5891 170.711 19.7757C170.274 18.9691 169.693 18.3402 168.968 17.8958C168.244 17.4515 167.423 17.2328 166.494 17.2328C165.564 17.2328 164.737 17.4515 164.006 17.8958C163.267 18.3402 162.686 18.9622 162.263 19.7757C161.839 20.5823 161.62 21.5666 161.62 22.7219C161.62 23.8771 161.832 24.8272 162.263 25.6475C162.686 26.4678 163.274 27.1035 164.006 27.541C164.744 27.9853 165.571 28.2041 166.494 28.2041Z" fill="#FAB600"/>
<path d="M7.23886 52.4708L7.22519 45.4437L9.66548 45.4574V50.5021L11.9622 50.5158L11.9349 45.4437L14.3752 45.4574L14.3889 52.4776H7.23886V52.4708ZM13.1174 53.9336L13.0901 52.4571L13.6301 52.4708H11.9622L11.9349 50.5021L15.3458 50.5158L15.3595 53.9268L13.1106 53.9405L13.1174 53.9336ZM20.0214 52.587C19.1943 52.587 18.4765 52.4298 17.8613 52.1153C17.2461 51.8009 16.7676 51.3702 16.4259 50.8166C16.0841 50.2697 15.9132 49.6408 15.9132 48.9436C15.9132 48.2463 16.0772 47.6175 16.4122 47.0706C16.7403 46.5237 17.2051 46.0931 17.7861 45.7855C18.374 45.4779 19.0302 45.3275 19.7616 45.3275C20.452 45.3275 21.0809 45.471 21.6482 45.7513C22.2156 46.0316 22.6667 46.4485 23.0017 46.9886C23.3366 47.5354 23.5075 48.1916 23.5075 48.9709C23.5075 49.0598 23.5075 49.1555 23.4938 49.2717C23.487 49.3811 23.4802 49.4904 23.4665 49.5861H17.9297V48.2873H22.1609L21.2312 48.6496C21.2381 48.3284 21.1834 48.0549 21.0604 47.8225C20.9373 47.5901 20.7664 47.4055 20.5409 47.2757C20.3221 47.1458 20.0624 47.0843 19.7753 47.0843C19.4882 47.0843 19.2284 47.1458 19.0097 47.2757C18.791 47.4055 18.6201 47.5901 18.497 47.8294C18.374 48.0686 18.3193 48.3489 18.3193 48.6633V49.0393C18.3193 49.3879 18.3877 49.6818 18.5312 49.9348C18.6748 50.1877 18.8798 50.3791 19.1464 50.5089C19.413 50.6457 19.7343 50.7072 20.1034 50.7072C20.4452 50.7072 20.7459 50.6593 20.9852 50.5568C21.2313 50.4543 21.4705 50.3039 21.7166 50.0988L23.0085 51.4454C22.6736 51.8146 22.2566 52.1017 21.7713 52.2931C21.2791 52.4845 20.6981 52.587 20.0282 52.587H20.0214ZM24.8131 52.4708L24.7994 45.4437L27.2397 45.4574V48.0481L29.7825 48.0618L29.7552 45.4437L32.1955 45.4574L32.2092 52.4776H29.7825L29.7552 50.0099H27.2397V52.4776H24.8131V52.4708ZM35.4219 52.4708V46.8519L35.9482 47.3987L33.1593 47.385V45.4369H40.1042V47.3919H37.3153L37.8553 46.845L37.8417 52.464H35.415L35.4219 52.4708ZM45.4633 52.587C44.8686 52.587 44.3628 52.4571 43.939 52.1905C43.5152 51.9239 43.1939 51.5275 42.9752 50.9943C42.7564 50.4611 42.6471 49.7844 42.6471 48.9504C42.6471 48.1165 42.7496 47.426 42.9547 46.8929C43.1597 46.3597 43.4742 45.9632 43.8911 45.7035C44.3081 45.4437 44.8344 45.3138 45.4565 45.3138C46.0785 45.3138 46.6732 45.4642 47.1927 45.7581C47.7122 46.0589 48.1292 46.4759 48.4299 47.0159C48.7375 47.5559 48.8879 48.1985 48.8879 48.9436C48.8879 49.6887 48.7375 50.3312 48.4299 50.8781C48.1223 51.4249 47.7122 51.8419 47.1927 52.1358C46.6732 52.4298 46.0922 52.5733 45.4565 52.5733L45.4633 52.587ZM41.0612 45.4437H43.399V46.6399L43.3853 48.9641L43.5152 51.3019V55H41.0612V45.4437ZM44.9506 50.6252C45.2241 50.6252 45.4701 50.5568 45.6957 50.4338C45.9145 50.3039 46.0922 50.1125 46.2221 49.8664C46.3588 49.6135 46.4203 49.3127 46.4203 48.9572C46.4203 48.6018 46.3519 48.301 46.2221 48.0481C46.0854 47.7952 45.9145 47.6106 45.6957 47.4807C45.477 47.3509 45.2309 47.2893 44.9506 47.2893C44.6704 47.2893 44.4243 47.3509 44.2056 47.4807C43.9868 47.6106 43.8091 47.802 43.6792 48.0481C43.5425 48.301 43.481 48.6018 43.481 48.9572C43.481 49.3127 43.5494 49.6135 43.6792 49.8664C43.8159 50.1193 43.9868 50.3107 44.2056 50.4338C44.4243 50.5636 44.6704 50.6252 44.9506 50.6252ZM53.8437 52.4708L53.83 45.4437L56.2703 45.4574V48.0481L58.8132 48.0618L58.7858 45.4437L61.2261 45.4574L61.2398 52.4776H58.8132L58.7858 50.0099H56.2703V52.4776H53.8437V52.4708ZM66.4963 52.587C65.6692 52.587 64.9515 52.4298 64.3363 52.1153C63.7211 51.8009 63.2426 51.3702 62.9008 50.8166C62.559 50.2697 62.3882 49.6408 62.3882 48.9436C62.3882 48.2463 62.5522 47.6175 62.8872 47.0706C63.2153 46.5237 63.6732 46.0931 64.2611 45.7855C64.849 45.4779 65.5052 45.3275 66.2366 45.3275C66.927 45.3275 67.5558 45.471 68.1232 45.7513C68.6905 46.0316 69.1417 46.4485 69.4766 46.9886C69.8116 47.5354 69.9825 48.1916 69.9825 48.9709C69.9825 49.0598 69.9825 49.1555 69.9688 49.2717C69.962 49.3811 69.9483 49.4904 69.9415 49.5861H64.4046V48.2873H68.6359L67.7062 48.6496C67.7131 48.3284 67.6584 48.0549 67.5285 47.8225C67.4055 47.5901 67.2346 47.4055 67.0158 47.2757C66.7971 47.1458 66.5373 47.0843 66.2503 47.0843C65.9632 47.0843 65.7034 47.1458 65.4847 47.2757C65.2659 47.4055 65.095 47.5901 64.972 47.8294C64.849 48.0686 64.7943 48.3489 64.7943 48.6633V49.0393C64.7943 49.3879 64.8626 49.6818 65.0062 49.9348C65.1497 50.1877 65.3548 50.3791 65.6214 50.5089C65.888 50.6457 66.2092 50.7072 66.5784 50.7072C66.9201 50.7072 67.2209 50.6593 67.4601 50.5568C67.7062 50.4543 67.9455 50.3039 68.1916 50.0988L69.4835 51.4454C69.1485 51.8146 68.7316 52.1017 68.2462 52.2931C67.7541 52.4845 67.173 52.587 66.5032 52.587H66.4963ZM71.2812 52.4708L71.2676 45.4437L73.7078 45.4574V49.1281L76.6403 45.4437L78.8892 45.4574L78.9029 52.4776H76.4626L76.4489 48.7795L73.5438 52.4776H71.2812V52.4708ZM74.9109 44.767C74.0838 44.767 73.4754 44.5892 73.0858 44.2406C72.6962 43.892 72.4911 43.352 72.4843 42.6274H74.0701C74.077 42.9145 74.1453 43.1332 74.2684 43.2973C74.3914 43.4545 74.6033 43.5365 74.8972 43.5365C75.1912 43.5365 75.4031 43.4545 75.5398 43.2973C75.6765 43.1401 75.7448 42.9145 75.7448 42.6274H77.358C77.358 43.352 77.1598 43.892 76.7565 44.2406C76.3532 44.5892 75.738 44.767 74.9041 44.767H74.9109ZM84.9523 52.587C84.3576 52.587 83.8518 52.4571 83.428 52.1905C83.0042 51.9239 82.6829 51.5275 82.4642 50.9943C82.2455 50.4611 82.1361 49.7844 82.1361 48.9504C82.1361 48.1165 82.2386 47.426 82.4437 46.8929C82.6488 46.3597 82.9632 45.9632 83.3802 45.7035C83.7971 45.4437 84.3235 45.3138 84.9455 45.3138C85.5675 45.3138 86.1622 45.4642 86.6817 45.7581C87.2012 46.0589 87.6182 46.4759 87.919 47.0159C88.2266 47.5559 88.377 48.1985 88.377 48.9436C88.377 49.6887 88.2266 50.3312 87.919 50.8781C87.6114 51.4249 87.2012 51.8419 86.6817 52.1358C86.1622 52.4298 85.5812 52.5733 84.9455 52.5733L84.9523 52.587ZM80.5502 45.4437H82.888V46.6399L82.8743 48.9641L83.0042 51.3019V55H80.5502V45.4437ZM84.4397 50.6252C84.7131 50.6252 84.966 50.5568 85.1848 50.4338C85.4035 50.3039 85.5812 50.1125 85.7111 49.8664C85.8478 49.6135 85.9093 49.3127 85.9093 48.9572C85.9093 48.6018 85.841 48.301 85.7111 48.0481C85.5744 47.7952 85.4035 47.6106 85.1848 47.4807C84.966 47.3509 84.7199 47.2893 84.4397 47.2893C84.1594 47.2893 83.9133 47.3509 83.6946 47.4807C83.4759 47.6106 83.2981 47.802 83.1683 48.0481C83.0315 48.301 82.97 48.6018 82.97 48.9572C82.97 49.3127 83.0384 49.6135 83.1683 49.8664C83.305 50.1193 83.4759 50.3107 83.6946 50.4338C83.9133 50.5636 84.1594 50.6252 84.4397 50.6252ZM93.0115 52.587C92.2391 52.5802 91.5555 52.4229 90.9676 52.1153C90.3798 51.8077 89.915 51.3771 89.5732 50.8302C89.2314 50.2834 89.0605 49.6545 89.0605 48.9572C89.0605 48.26 89.2314 47.6106 89.5732 47.0706C89.915 46.5306 90.3798 46.1068 90.9745 45.7923C91.5692 45.4779 92.2459 45.3275 93.0046 45.3275C93.7634 45.3275 94.4674 45.4847 95.0621 45.7923C95.6637 46.1068 96.1285 46.5306 96.4634 47.0774C96.7984 47.6243 96.9693 48.2463 96.9693 48.9572C96.9693 49.6682 96.7984 50.2834 96.4634 50.8302C96.1285 51.3771 95.6637 51.8077 95.0621 52.1153C94.4674 52.4229 93.7839 52.5802 93.0183 52.587H93.0115ZM93.0115 50.6252C93.2986 50.6252 93.5446 50.5568 93.7634 50.4338C93.9821 50.3039 94.1598 50.1125 94.2829 49.8596C94.4128 49.6066 94.4811 49.3059 94.4879 48.9572C94.4811 48.595 94.4128 48.2873 94.2829 48.0413C94.153 47.7952 93.9821 47.6038 93.7634 47.4739C93.5446 47.344 93.2849 47.2825 92.9978 47.2825C92.7312 47.2825 92.4851 47.344 92.2664 47.4739C92.0477 47.6038 91.8699 47.7883 91.7401 48.0413C91.6033 48.2873 91.535 48.595 91.5281 48.9572C91.535 49.3059 91.6102 49.6066 91.7401 49.8596C91.8768 50.1125 92.0477 50.3107 92.2664 50.4406C92.4851 50.5773 92.7312 50.6388 93.0115 50.6252ZM98.1108 52.4708V45.4437H105.343V52.4708H102.903V46.8655L103.443 47.3987H100.025L100.551 46.8655V52.4708H98.1108ZM110.606 52.587C109.779 52.587 109.061 52.4298 108.446 52.1153C107.831 51.8009 107.352 51.3702 107.011 50.8166C106.669 50.2697 106.498 49.6408 106.498 48.9436C106.498 48.2463 106.662 47.6175 106.997 47.0706C107.325 46.5237 107.79 46.0931 108.371 45.7855C108.959 45.4779 109.615 45.3275 110.346 45.3275C111.037 45.3275 111.666 45.471 112.233 45.7513C112.8 46.0316 113.252 46.4485 113.587 46.9886C113.921 47.5354 114.092 48.1916 114.092 48.9709C114.092 49.0598 114.092 49.1555 114.079 49.2717C114.072 49.3811 114.065 49.4904 114.051 49.5861H108.515V48.2873H112.746L111.816 48.6496C111.823 48.3284 111.768 48.0549 111.645 47.8225C111.522 47.5901 111.351 47.4055 111.126 47.2757C110.907 47.1458 110.647 47.0843 110.36 47.0843C110.073 47.0843 109.813 47.1458 109.595 47.2757C109.376 47.4055 109.205 47.5901 109.082 47.8294C108.959 48.0686 108.904 48.3489 108.904 48.6633V49.0393C108.904 49.3879 108.973 49.6818 109.116 49.9348C109.26 50.1877 109.465 50.3791 109.731 50.5089C109.998 50.6457 110.319 50.7072 110.688 50.7072C111.03 50.7072 111.324 50.6593 111.57 50.5568C111.816 50.4543 112.055 50.3039 112.301 50.0988L113.593 51.4454C113.258 51.8146 112.841 52.1017 112.356 52.2931C111.864 52.4845 111.283 52.587 110.613 52.587H110.606ZM120.21 51.3908V47.3987H118.337L118.31 48.0754C118.289 48.4104 118.276 48.7317 118.255 49.0256C118.235 49.3264 118.187 49.593 118.118 49.8391C118.05 50.0783 117.948 50.2834 117.825 50.4543C117.695 50.6252 117.524 50.7482 117.305 50.8234L114.906 50.5021C115.138 50.5021 115.33 50.4338 115.48 50.3039C115.63 50.1672 115.747 49.9826 115.835 49.7365C115.924 49.4973 115.986 49.217 116.02 48.9026C116.061 48.5881 116.088 48.2532 116.102 47.8977L116.191 45.4437H122.657V51.3976H120.203L120.21 51.3908ZM114.673 53.92V50.4953H123.635V53.92H121.365V52.464H116.963V53.92H114.673ZM128.837 52.4708V51.1583L128.666 50.8371V48.4241C128.666 48.0344 128.55 47.7337 128.31 47.5217C128.071 47.3098 127.695 47.2073 127.182 47.2073C126.847 47.2073 126.506 47.262 126.164 47.3714C125.822 47.4807 125.528 47.6311 125.289 47.8157L124.462 46.1409C124.858 45.8812 125.33 45.683 125.891 45.5394C126.444 45.3959 126.998 45.3275 127.552 45.3275C128.686 45.3275 129.568 45.5872 130.19 46.1136C130.812 46.6399 131.127 47.4534 131.127 48.5744V52.4776H128.843L128.837 52.4708ZM126.772 52.587C126.212 52.587 125.74 52.4913 125.351 52.2999C124.961 52.1085 124.667 51.8487 124.469 51.5206C124.264 51.1925 124.168 50.8234 124.168 50.4201C124.168 49.9894 124.277 49.6135 124.496 49.299C124.715 48.9846 125.057 48.7385 125.508 48.5744C125.966 48.4036 126.554 48.3215 127.278 48.3215H128.932V49.6066H127.613C127.217 49.6066 126.936 49.6682 126.779 49.798C126.622 49.9279 126.54 50.0988 126.54 50.3176C126.54 50.5363 126.622 50.7072 126.786 50.8371C126.95 50.9669 127.176 51.0285 127.456 51.0285C127.722 51.0285 127.969 50.9601 128.187 50.8302C128.406 50.6935 128.57 50.4884 128.673 50.215L129.008 51.1242C128.878 51.6095 128.625 51.9718 128.256 52.2179C127.88 52.464 127.388 52.587 126.779 52.587H126.772ZM132.589 52.4708L132.603 45.4505L138.454 45.4369L138.441 47.385L134.503 47.3987L135.03 46.8655V52.4708H132.589ZM142.583 52.587C141.811 52.5802 141.127 52.4229 140.539 52.1153C139.951 51.8077 139.486 51.3771 139.145 50.8302C138.803 50.2834 138.632 49.6545 138.632 48.9572C138.632 48.26 138.803 47.6106 139.145 47.0706C139.486 46.5306 139.951 46.1068 140.546 45.7923C141.141 45.4779 141.817 45.3275 142.576 45.3275C143.335 45.3275 144.039 45.4847 144.634 45.7923C145.228 46.1068 145.7 46.5306 146.035 47.0774C146.37 47.6243 146.541 48.2463 146.541 48.9572C146.541 49.6682 146.37 50.2834 146.035 50.8302C145.7 51.3771 145.235 51.8077 144.634 52.1153C144.032 52.4229 143.355 52.5802 142.59 52.587H142.583ZM142.583 50.6252C142.87 50.6252 143.116 50.5568 143.342 50.4338C143.56 50.3039 143.738 50.1125 143.861 49.8596C143.991 49.6066 144.059 49.3059 144.066 48.9572C144.059 48.595 143.991 48.2873 143.861 48.0413C143.731 47.7952 143.56 47.6038 143.342 47.4739C143.123 47.344 142.863 47.2825 142.576 47.2825C142.31 47.2825 142.063 47.344 141.845 47.4739C141.626 47.6038 141.448 47.7883 141.318 48.0413C141.182 48.2873 141.113 48.595 141.106 48.9572C141.113 49.3059 141.189 49.6066 141.318 49.8596C141.448 50.1125 141.626 50.3107 141.845 50.4406C142.063 50.5773 142.31 50.6388 142.59 50.6252H142.583ZM147.682 52.4708L147.696 45.4505L153.547 45.4369L153.534 47.385L149.596 47.3987L150.123 46.8655V52.4708H147.682ZM154.525 52.4708L154.497 45.4437L156.951 45.4574V52.4776H154.525V52.4708ZM155.728 44.6644C155.283 44.6644 154.921 44.5414 154.641 44.2885C154.367 44.0355 154.231 43.7279 154.231 43.352C154.231 42.976 154.367 42.6684 154.641 42.4155C154.914 42.1626 155.277 42.0395 155.728 42.0395C156.179 42.0395 156.534 42.1557 156.815 42.395C157.088 42.6342 157.225 42.935 157.225 43.311C157.225 43.6869 157.088 44.0219 156.821 44.2748C156.548 44.5277 156.186 44.6576 155.728 44.6576V44.6644ZM163.507 52.4708L161.374 49.1897L163.349 48.0208L166.398 52.4708H163.507ZM158.605 52.4708V45.4437H161.046L161.059 52.4708H158.605ZM160.335 49.9553V48.0344L162.864 48.0481V49.9689L160.335 49.9553ZM163.602 49.2307L161.306 48.9983L163.657 45.4437H166.255L163.609 49.2307H163.602ZM167.225 52.4708L167.211 45.4437L169.652 45.4574V49.1281L172.584 45.4437L174.833 45.4574L174.847 52.4776H172.406L172.393 48.7795L169.488 52.4776H167.225V52.4708Z" fill="#54BBAF"/>
<path d="M17.3487 4.70296C20.6502 4.70296 23.6442 6.07693 25.8042 8.29853C27.9643 10.5133 29.304 13.5757 29.304 16.9594C29.304 19.0784 28.7777 21.0813 27.8412 22.8244C26.9184 24.5607 25.5923 26.0372 23.9997 27.1377L22.9333 31.2596C22.8581 31.5399 22.6052 31.7313 22.3249 31.7313H12.3724C12.0579 31.7313 11.7982 31.5057 11.7503 31.2049L10.6977 27.1377C9.10497 26.0372 7.77887 24.5607 6.85607 22.8244C5.92643 21.0813 5.39326 19.0784 5.39326 16.9594C5.39326 13.5825 6.73303 10.5201 8.89306 8.29853C11.0599 6.07693 14.0471 4.70296 17.3487 4.70296ZM24.9088 9.18034C22.9743 7.19799 20.3016 5.96756 17.3555 5.96756C14.4094 5.96756 11.7298 7.19799 9.80219 9.18034C7.86773 11.1695 6.66467 13.9175 6.66467 16.9594C6.66467 18.8734 7.13632 20.6711 7.97026 22.2365C8.83154 23.8497 10.0756 25.2237 11.5794 26.2149C11.7162 26.2969 11.8187 26.4336 11.8665 26.5977L12.8714 30.4735H21.8464L22.8513 26.5977C22.8923 26.4541 22.9812 26.3174 23.1179 26.2286C24.6285 25.2374 25.8794 23.8634 26.7475 22.2365C27.5815 20.6711 28.0531 18.8734 28.0531 16.9594C28.0531 13.9175 26.8569 11.1695 24.9156 9.18034H24.9088Z" fill="#54BBAF"/>
<path d="M12.8919 33.7273C12.5433 33.7273 12.263 33.4471 12.263 33.0984C12.263 32.7498 12.5433 32.4696 12.8919 32.4696H21.8054C22.1541 32.4696 22.4343 32.7498 22.4343 33.0984C22.4343 33.4471 22.1541 33.7273 21.8054 33.7273H12.8919Z" fill="#54BBAF"/>
<path d="M13.883 35.5319C13.5344 35.5319 13.2542 35.2517 13.2542 34.9031C13.2542 34.5544 13.5344 34.2742 13.883 34.2742H20.8143C21.1629 34.2742 21.4432 34.5544 21.4432 34.9031C21.4432 35.2517 21.1629 35.5319 20.8143 35.5319H13.883Z" fill="#54BBAF"/>
<path d="M14.5597 37.111C14.2111 37.111 13.9309 36.8307 13.9309 36.4821C13.9309 36.1335 14.2111 35.8532 14.5597 35.8532H20.1376C20.4862 35.8532 20.7664 36.1335 20.7664 36.4821C20.7664 36.8307 20.4862 37.111 20.1376 37.111H14.5597Z" fill="#54BBAF"/>
<path d="M15.9747 38.2252C15.6261 38.2252 15.3458 37.9518 15.339 37.6032C15.339 37.2545 15.6193 36.9743 15.961 36.9674L18.7226 36.9333C19.0712 36.9333 19.3515 37.2135 19.3583 37.5553V37.5895C19.3583 37.9381 19.078 38.2184 18.7294 38.2184C18.6611 38.2184 18.5927 38.2047 18.5312 38.1842L15.9747 38.2115V38.2252Z" fill="#54BBAF"/>
<path fill-rule="evenodd" clip-rule="evenodd" d="M17.5537 0C18.3945 0 19.0712 0.683569 19.0712 1.51752C19.0712 2.35148 18.3877 3.03505 17.5537 3.03505C16.7198 3.03505 16.0362 2.35148 16.0362 1.51752C16.0362 0.683569 16.7198 0 17.5537 0Z" fill="#FAB600"/>
<path fill-rule="evenodd" clip-rule="evenodd" d="M25.647 2.16692C26.4878 2.16692 27.1645 2.85048 27.1645 3.68444C27.1645 4.51839 26.481 5.20196 25.647 5.20196C24.8131 5.20196 24.1295 4.51839 24.1295 3.68444C24.1295 2.85048 24.8131 2.16692 25.647 2.16692Z" fill="#FAB600"/>
<path fill-rule="evenodd" clip-rule="evenodd" d="M9.43307 2.16692C8.5923 2.16692 7.91558 2.85048 7.91558 3.68444C7.91558 4.51839 8.59913 5.20196 9.43307 5.20196C10.267 5.20196 10.9506 4.51839 10.9506 3.68444C10.9506 2.85048 10.267 2.16692 9.43307 2.16692Z" fill="#54BBAF"/>
<path fill-rule="evenodd" clip-rule="evenodd" d="M31.4367 7.95675C32.2775 7.95675 32.9542 8.64032 32.9542 9.47427C32.9542 10.3082 32.2707 10.9918 31.4367 10.9918C30.6028 10.9918 29.9192 10.3082 29.9192 9.47427C29.9192 8.64032 30.6028 7.95675 31.4367 7.95675Z" fill="#FAB600"/>
<path fill-rule="evenodd" clip-rule="evenodd" d="M3.64335 7.95675C2.80258 7.95675 2.12586 8.64032 2.12586 9.47427C2.12586 10.3082 2.80942 10.9918 3.64335 10.9918C4.47729 10.9918 5.16085 10.3082 5.16085 9.47427C5.16085 8.64032 4.47729 7.95675 3.64335 7.95675Z" fill="#54BBAF"/>
<path fill-rule="evenodd" clip-rule="evenodd" d="M33.5558 16.1186C34.3965 16.1186 35.0733 16.8021 35.0733 17.6361C35.0733 18.47 34.3897 19.1536 33.5558 19.1536C32.7218 19.1536 32.0383 18.47 32.0383 17.6361C32.0383 16.8021 32.7218 16.1186 33.5558 16.1186Z" fill="#FAB600"/>
<path fill-rule="evenodd" clip-rule="evenodd" d="M1.51749 16.1186C0.67672 16.1186 0 16.8021 0 17.6361C0 18.47 0.683556 19.1536 1.51749 19.1536C2.35143 19.1536 3.03499 18.47 3.03499 17.6361C3.03499 16.8021 2.35143 16.1186 1.51749 16.1186Z" fill="#54BBAF"/>
<path fill-rule="evenodd" clip-rule="evenodd" d="M31.4504 24.0001C32.2912 24.0001 32.9679 24.6837 32.9679 25.5177C32.9679 26.3516 32.2843 27.0352 31.4504 27.0352C30.6165 27.0352 29.9329 26.3516 29.9329 25.5177C29.9329 24.6837 30.6165 24.0001 31.4504 24.0001Z" fill="#FAB600"/>
<path fill-rule="evenodd" clip-rule="evenodd" d="M3.62968 24.0001C2.78891 24.0001 2.11219 24.6837 2.11219 25.5177C2.11219 26.3516 2.79574 27.0352 3.62968 27.0352C4.46362 27.0352 5.14718 26.3516 5.14718 25.5177C5.14718 24.6837 4.46362 24.0001 3.62968 24.0001Z" fill="#54BBAF"/>
<path fill-rule="evenodd" clip-rule="evenodd" d="M21.6824 21.7375C20.7254 20.9036 21.7986 19.9397 21.4773 19.3587L20.2879 19.3108C20.2059 19.8509 20.2879 19.9261 19.8915 20.2883C19.4882 20.6233 19.4335 20.5344 18.9618 20.76C18.9687 21.0198 18.9072 21.7717 19.0712 21.9289L20.2128 21.7375C20.5409 22.9406 18.8046 23.6515 18.1963 22.6193C17.9707 22.2365 17.8955 19.4681 18.0869 19.1126C18.6679 18.887 19.3583 19.3108 20.3153 18.7503C21.2107 18.2171 21.0125 17.7865 21.5594 17.3353C21.8875 17.2738 23.2751 17.2054 23.4733 17.4447C23.8151 17.8685 23.5553 18.7571 23.0563 19.0579C21.9695 19.7141 22.5163 19.5433 22.5984 20.5002C22.6462 21.0471 22.2908 21.7375 21.6892 21.7307L21.6824 21.7375ZM16.7403 18.0667C16.7198 19.0169 16.8565 21.6623 16.6719 22.4006C16.3165 23.8156 13.9719 22.9406 14.5461 21.7922L15.7765 21.9221C15.8653 21.7512 15.7696 20.8489 15.7628 20.8284C15.4962 20.5413 15.2091 20.6506 14.8332 20.2747C14.5734 20.0081 14.5187 19.5774 14.3137 19.3382L13.2747 19.3997C12.9466 19.9671 13.883 20.9104 13.179 21.717C11.5931 21.8195 12.4749 19.844 12.2835 19.5296C12.0921 19.2083 10.2123 18.3607 11.3744 17.3695L13.2473 17.39L13.9787 18.47C14.3615 18.3675 14.9972 17.807 14.6896 17.2806C14.3683 16.7269 14.4435 16.057 15.0382 15.7426C15.4484 15.5307 16.6172 15.2709 16.7335 15.8588C16.8086 16.2416 16.754 17.5951 16.7403 18.0599V18.0667ZM19.8641 15.7084C20.0624 16.2143 20.4998 16.4809 20.0965 17.2054C19.7753 17.7796 19.2421 17.766 18.6747 17.7591C17.6904 17.7523 17.9707 17.5404 17.9639 16.4945C17.957 15.2983 17.8135 11.2447 18.1552 10.7115C18.914 9.54263 20.452 10.486 20.2333 11.566C19.994 11.5318 19.0507 11.3473 18.9003 11.443L19.0029 12.5572C19.331 12.8169 19.6386 12.7076 19.9462 13.022C20.2264 13.3159 20.1171 13.5962 20.3631 13.979L21.4432 13.9243C21.7576 13.0698 20.7596 12.7964 21.6551 11.5387C23.0153 11.6617 22.2771 13.2818 22.4001 13.7944C22.9675 14.5737 23.945 14.1157 23.446 15.9682L21.4568 15.9203L20.7938 14.8198C20.5477 14.8198 20.0145 15.4692 19.8641 15.7153V15.7084ZM14.4982 11.5728C14.2248 10.6022 15.3663 9.82973 16.1593 10.3082C16.9727 10.8004 16.6788 12.1812 16.6788 13.0425C16.6788 15.1411 16.3028 13.8081 14.7511 14.3686C13.5891 14.7924 13.5276 15.7426 13.1858 16.0092L11.2992 15.9613C10.4242 14.7514 11.7982 14.396 12.4134 13.5962C12.2425 12.8238 11.6956 11.9556 13.0354 11.5045C13.9035 12.646 12.9807 13.063 13.2473 14.0679L14.3137 13.9927C14.5324 13.7603 14.4162 13.439 14.7785 13.0562C15.1613 12.6529 15.3732 12.8511 15.797 12.6187L15.7423 11.4498C15.4825 11.3473 14.8127 11.5455 14.5051 11.5728H14.4982ZM15.0861 8.95476C13.7463 9.22819 14.1633 9.93227 12.4886 10.3766C11.0189 10.7662 11.0394 11.7027 10.8959 12.8853C10.8002 13.6987 9.38522 13.9585 9.87055 15.811C10.2875 17.4105 9.35788 17.725 10.0961 19.181C10.3627 19.7073 10.7865 19.7893 10.8754 20.3499C10.9916 21.0813 10.7455 21.341 11.265 22.0246C12.304 23.3986 13.0696 22.6945 13.801 23.5626C14.5324 24.4376 15.7355 24.7589 16.7266 24.089C17.875 23.3166 17.998 24.8136 19.7958 24.3487C20.3358 24.212 20.6229 23.9659 20.9578 23.5421C21.45 22.9201 21.6961 23.1183 22.366 22.9064C23.7672 22.4689 23.61 21.2932 23.8493 20.2952C24.027 19.5433 25.3531 19.1331 24.7926 17.3422C24.3278 15.8451 25.4146 15.4897 24.6285 14.0542C24.3551 13.5483 23.9723 13.521 23.8561 12.8716C23.7399 12.1812 23.8766 11.8941 23.446 11.2379C22.6804 10.0758 21.6551 10.6022 20.9168 9.68618C20.2606 8.87273 18.8115 8.58563 17.9365 9.15983C16.6241 10.0211 16.9454 8.55829 15.0861 8.93425V8.95476Z" fill="#FAB600"/>
<path fill-rule="evenodd" clip-rule="evenodd" d="M26.0982 38.2525H153.349V39.8248H26.0982V38.2525Z" fill="#54BBAF"/>
</svg>
