<svg width="22" height="22" viewBox="0 0 22 22" fill="none" xmlns="http://www.w3.org/2000/svg">
<path fill-rule="evenodd" clip-rule="evenodd" d="M18.1333 3.06667C16.1333 1.06667 13.4667 0 10.6667 0C4.8 0 0 4.8 0 10.6667C0 12.5333 0.533342 14.4 1.46667 16L0 21.3333L5.60002 19.8667C7.20002 20.6667 8.93333 21.2 10.6667 21.2C16.5333 21.2 21.3333 16.4 21.3333 10.5333C21.3333 7.73333 20.1333 5.06667 18.1333 3.06667ZM10.6667 19.4667C9.06667 19.4667 7.46667 19.0667 6.13334 18.2667L5.86666 18.1333L2.53333 19.0667L3.46667 15.8667L3.19999 15.4667C2.26666 14 1.86666 12.4 1.86666 10.8C1.86666 6 5.86667 2 10.6667 2C13.0667 2 15.2 2.93333 16.9333 4.53333C18.6667 6.26667 19.4667 8.4 19.4667 10.8C19.4667 15.4667 15.6 19.4667 10.6667 19.4667ZM15.4667 12.8C15.2 12.6667 13.8667 12 13.6 12C13.3334 11.8667 13.2 11.8667 13.0667 12.1333C12.9333 12.4 12.4 12.9333 12.2667 13.2C12.1334 13.3333 12 13.3333 11.7333 13.3333C11.4667 13.2 10.6667 12.9333 9.60002 12C8.80002 11.3333 8.26667 10.4 8.13334 10.1333C8.00001 9.86667 8.13335 9.73333 8.26668 9.6C8.40002 9.46667 8.53333 9.33333 8.66667 9.2C8.8 9.06667 8.80002 8.93333 8.93335 8.8C9.06668 8.66667 8.93335 8.53333 8.93335 8.4C8.93335 8.26667 8.40001 6.93333 8.13334 6.4C8.00001 6 7.73335 6 7.60002 6C7.46668 6 7.33332 6 7.06665 6C6.93332 6 6.66665 6 6.39998 6.26667C6.13332 6.53333 5.46667 7.2 5.46667 8.53333C5.46667 9.86667 6.39999 11.0667 6.53333 11.3333C6.66666 11.4667 8.39998 14.2667 11.0667 15.3333C13.3333 16.2667 13.7333 16 14.2667 16C14.8 16 15.8667 15.3333 16 14.8C16.2667 14.1333 16.2667 13.6 16.1333 13.6C16 12.9333 15.7333 12.9333 15.4667 12.8Z" fill="#54BBAF"/>
</svg>
