<svg width="24" height="19" viewBox="0 0 24 19" fill="none" xmlns="http://www.w3.org/2000/svg">
<path d="M1.64987 8.03595C8.09231 5.40168 12.3883 3.665 14.5378 2.82592C20.675 0.430186 21.9503 0.0140217 22.7815 0.000133225C22.9643 -0.00274265 23.3731 0.0397782 23.6379 0.241417C23.8614 0.411676 23.9229 0.641673 23.9524 0.803098C23.9818 0.964523 24.0185 1.33225 23.9893 1.61959C23.6567 4.89916 22.2177 12.8578 21.4856 16.531C21.1758 18.0853 20.5658 18.6064 19.9753 18.6574C18.6919 18.7683 17.7174 17.8614 16.4744 17.0967C14.5294 15.9001 13.4305 15.1552 11.5425 13.9876C9.36064 12.6382 10.7751 11.8965 12.0185 10.6844C12.344 10.3672 17.9985 5.54021 18.1079 5.10233C18.1216 5.04757 18.1343 4.84343 18.0051 4.73564C17.8759 4.62785 17.6851 4.66471 17.5475 4.69403C17.3524 4.73558 14.2452 6.66306 8.22584 10.4765C7.34386 11.0449 6.54499 11.3218 5.82924 11.3073C5.04017 11.2913 3.52233 10.8886 2.39397 10.5443C1.00999 10.1221 -0.0899675 9.89889 0.00581422 9.18184C0.0557033 8.80836 0.603724 8.42639 1.64987 8.03595Z" fill="#54BBAF"/>
</svg>
